<svg width="17" height="17" viewBox="0 0 17 17" fill="none" xmlns="http://www.w3.org/2000/svg">
<path d="M8.49028 0.440432C6.80951 0.442288 5.16704 0.924917 3.77048 1.8273C2.37393 2.72968 1.28597 4.01129 0.644144 5.51017C0.00231959 7.00904 -0.164562 8.65786 0.164589 10.2482C0.49374 11.8386 1.30415 13.2991 2.49338 14.4452C3.68261 15.5912 5.19727 16.3714 6.8459 16.687C8.49454 17.0025 10.2031 16.8394 11.7557 16.2183C13.3083 15.5971 14.6352 14.5457 15.5686 13.197C16.5021 11.8483 17.0002 10.2629 17 8.64116C16.9994 7.56353 16.7787 6.49655 16.3507 5.5012C15.9227 4.50585 15.2957 3.6016 14.5055 2.84008C13.7153 2.07856 12.7773 1.47471 11.7452 1.06297C10.7131 0.651238 9.6071 0.439692 8.49028 0.440432ZM8.80653 11.7453L4.11814 6.9858H13.4959L8.80653 11.7453Z" fill="#030303"/>
</svg>
