<svg width="17" height="18" viewBox="0 0 17 18" fill="none" xmlns="http://www.w3.org/2000/svg">
<g clip-path="url(#clip0_2_1505)">
<path fill-rule="evenodd" clip-rule="evenodd" d="M9.44444 7.05881H14.1667V5.16992H9.44444V7.05881ZM9.44444 13.6699H14.1667V11.781H9.44444V13.6699ZM15.1111 17.9199H1.88889C0.85 17.9199 0 17.0699 0 16.031V2.80881C0 1.76992 0.85 0.919922 1.88889 0.919922H15.1111C16.15 0.919922 17 1.76992 17 2.80881V16.031C17 17.0699 16.15 17.9199 15.1111 17.9199ZM2.83333 8.47548H7.55556V3.75326H2.83333V8.47548ZM3.77778 4.6977H6.61111V7.53103H3.77778V4.6977ZM2.83333 15.0866H7.55556V10.3644H2.83333V15.0866ZM3.77778 11.3088H6.61111V14.1421H3.77778V11.3088Z" fill="#030303"/>
</g>
<defs>
<clipPath id="clip0_2_1505">
<rect width="17" height="17" fill="white" transform="translate(0 0.919922)"/>
</clipPath>
</defs>
</svg>
