<svg width="15" height="16" viewBox="0 0 15 16" fill="none" xmlns="http://www.w3.org/2000/svg">
<g clip-path="url(#clip0_2_1476)">
<path d="M10.9425 4.58944L6 9.46175L3.3075 6.81488L2.25 7.85736L6 11.5541L12 5.63931L10.9425 4.58944ZM7.5 0.463867C3.36 0.463867 0 3.77615 0 7.85736C0 11.9386 3.36 15.2508 7.5 15.2508C11.64 15.2508 15 11.9386 15 7.85736C15 3.77615 11.64 0.463867 7.5 0.463867ZM7.5 13.7722C4.185 13.7722 1.5 11.1253 1.5 7.85736C1.5 4.58944 4.185 1.94257 7.5 1.94257C10.815 1.94257 13.5 4.58944 13.5 7.85736C13.5 11.1253 10.815 13.7722 7.5 13.7722Z" fill="black"/>
</g>
<defs>
<clipPath id="clip0_2_1476">
<rect width="15" height="14.7425" fill="white" transform="translate(0 0.463867)"/>
</clipPath>
</defs>
</svg>
