<svg width="17" height="18" viewBox="0 0 17 18" fill="none" xmlns="http://www.w3.org/2000/svg">
<path d="M15.3963 1.78344H13.7113V0.969517C13.7113 0.819612 13.651 0.675854 13.5436 0.569854C13.4362 0.463855 13.2905 0.404297 13.1386 0.404297C12.9867 0.404297 12.841 0.463855 12.7336 0.569854C12.6262 0.675854 12.5659 0.819612 12.5659 0.969517V1.77892H4.43299V0.969517C4.43299 0.819612 4.37265 0.675854 4.26524 0.569854C4.15783 0.463855 4.01215 0.404297 3.86025 0.404297C3.70835 0.404297 3.56268 0.463855 3.45527 0.569854C3.34786 0.675854 3.28752 0.819612 3.28752 0.969517V1.77892H1.60367C1.17934 1.77891 0.772307 1.94489 0.471725 2.24047C0.171143 2.53605 0.00151546 2.93715 0 3.3559V4.77458H16.9954V3.3559C16.9927 2.93872 16.8232 2.53946 16.5237 2.24499C16.2243 1.95052 15.8191 1.78462 15.3963 1.78344Z" fill="#030303"/>
<path d="M0 15.8275C0.00151546 16.2463 0.171143 16.6474 0.471725 16.943C0.772306 17.2386 1.17934 17.4045 1.60367 17.4045H15.3963C15.8207 17.4045 16.2277 17.2386 16.5283 16.943C16.8289 16.6474 16.9985 16.2463 17 15.8275V5.99268H0V15.8275ZM8.01833 13.8549C8.06925 13.3228 8.22802 12.8063 8.48521 12.3359C8.7424 11.8656 9.09275 11.4511 9.51546 11.117C10.3081 10.2963 10.5155 10.0419 10.5155 9.40209C10.5155 8.916 10.3883 8.53618 9.82818 8.53618C9.26804 8.53618 9.09737 8.94087 9.07102 9.58749H8.05956C8.03296 9.34576 8.06078 9.10123 8.14101 8.87133C8.22124 8.64144 8.35192 8.43186 8.52371 8.25757C8.6955 8.08328 8.90417 7.94858 9.13481 7.86308C9.36546 7.77758 9.61238 7.74337 9.85796 7.76293C10.0891 7.73107 10.3246 7.75186 10.5463 7.82368C10.7681 7.89551 10.9703 8.01649 11.1373 8.17733C11.3044 8.33817 11.4319 8.53459 11.5102 8.75159C11.5884 8.96859 11.6153 9.20037 11.5888 9.42921C11.5888 10.1877 11.3597 10.5902 10.4948 11.4256C9.95667 11.8833 9.52425 12.4495 9.2268 13.0862H11.7663L11.6243 13.9126H8.01833V13.8549ZM5.30011 8.30104C5.71993 8.24296 6.11587 8.07339 6.44559 7.81044H7.14318V13.9148H6.09851V8.94088C5.8355 9.00134 5.5667 9.03392 5.29668 9.0381L5.30011 8.30104Z" fill="#030303"/>
</svg>
