<svg width="17" height="13" viewBox="0 0 17 13" fill="none" xmlns="http://www.w3.org/2000/svg">
<path d="M16.3688 0.770997H0.628843C0.546219 0.770826 0.464376 0.788577 0.388011 0.823285C0.311647 0.857993 0.242264 0.90895 0.183839 0.973229C0.125415 1.03751 0.0791 1.11387 0.0475531 1.19789C0.0160063 1.2819 -0.000154923 1.37196 1.11928e-06 1.46286V12.0791C-0.000154923 12.17 0.0160063 12.2601 0.0475531 12.3441C0.0791 12.4281 0.125415 12.5044 0.183839 12.5687C0.242264 12.633 0.311647 12.684 0.388011 12.7187C0.464376 12.7534 0.546219 12.7712 0.628843 12.771H16.3688C16.4515 12.7712 16.5335 12.7534 16.61 12.7187C16.6865 12.6841 16.756 12.6331 16.8146 12.5689C16.8732 12.5046 16.9198 12.4283 16.9516 12.3443C16.9834 12.2603 16.9998 12.1702 17 12.0791V1.46286C16.9998 1.37184 16.9834 1.28172 16.9516 1.19769C16.9198 1.11365 16.8732 1.03731 16.8146 0.97307C16.756 0.908825 16.6865 0.857921 16.61 0.823245C16.5335 0.788569 16.4515 0.770826 16.3688 0.770997ZM15.4913 3.91886L8.88429 8.12214H8.36322L1.75862 3.92018C1.68452 3.87278 1.61962 3.80979 1.56765 3.7348C1.51567 3.65981 1.47762 3.57431 1.45568 3.48315C1.43374 3.39198 1.42834 3.29692 1.43978 3.20346C1.45123 3.11 1.47928 3.01993 1.52236 2.9384C1.56544 2.85687 1.6227 2.78549 1.69085 2.7283C1.75901 2.67111 1.83674 2.62925 1.9196 2.60512C2.00246 2.58098 2.08883 2.57503 2.17378 2.58762C2.25873 2.60021 2.3406 2.63108 2.4147 2.67848L8.62257 6.62899L14.8304 2.67848C14.9045 2.63108 14.9864 2.60021 15.0714 2.58762C15.1563 2.57503 15.2427 2.58098 15.3255 2.60512C15.4084 2.62925 15.4861 2.67111 15.5543 2.7283C15.6224 2.78549 15.6797 2.85687 15.7228 2.9384C15.7659 3.01993 15.7939 3.11 15.8054 3.20346C15.8168 3.29692 15.8114 3.39198 15.7895 3.48315C15.7675 3.57431 15.7295 3.65981 15.6775 3.7348C15.6255 3.80979 15.5606 3.87278 15.4865 3.92018L15.4913 3.91886Z" fill="#030303"/>
</svg>
