<svg width="100" height="120" viewBox="0 0 100 120" fill="none" xmlns="http://www.w3.org/2000/svg">
<path d="M15.121 85.716C14.5837 85.5253 14.0637 85.248 13.561 84.884C13.0757 84.52 12.7203 84.0607 12.495 83.506C12.2177 82.726 12.079 81.8073 12.079 80.75C12.079 79.7273 12.1397 78.8607 12.261 78.15C12.3823 77.422 12.5903 76.6853 12.885 75.94L13.119 75.394C13.3963 74.6833 13.5957 74.2153 13.717 73.99C14.0117 73.314 14.5317 72.4387 15.277 71.364C15.9703 70.324 16.5163 69.5527 16.915 69.05C17.331 68.53 17.7557 68.088 18.189 67.724C18.6223 67.3427 19.255 66.866 20.087 66.294C20.5897 65.93 21.205 65.748 21.933 65.748C22.505 65.748 23.025 65.8867 23.493 66.164C23.9783 66.4413 24.3423 66.8747 24.585 67.464C24.7583 67.7587 24.845 68.166 24.845 68.686C24.845 69.518 24.6457 70.4193 24.247 71.39C23.8483 72.3607 23.3717 73.0973 22.817 73.6C22.6957 73.7213 22.531 73.782 22.323 73.782C22.115 73.782 21.8897 73.7213 21.647 73.6C21.4043 73.4787 21.1877 73.3313 20.997 73.158C20.841 72.8633 20.7543 72.69 20.737 72.638C20.7197 72.586 20.7543 72.5513 20.841 72.534C20.997 72.3433 21.2223 71.9793 21.517 71.442C21.829 70.8873 22.037 70.454 22.141 70.142L22.297 69.414C22.401 68.9633 22.453 68.6687 22.453 68.53C22.453 68.374 22.3923 68.2353 22.271 68.114C22.219 68.062 22.1497 68.036 22.063 68.036C21.9243 68.036 21.6817 68.1227 21.335 68.296C20.9363 68.4693 20.4597 68.8247 19.905 69.362C19.3677 69.882 18.8303 70.506 18.293 71.234C17.4957 72.274 16.8803 73.132 16.447 73.808C16.031 74.484 15.7103 75.1687 15.485 75.862L15.199 76.538C15.2163 76.6073 15.1903 76.7807 15.121 77.058C15.0517 77.3353 14.9737 77.5607 14.887 77.734C14.6443 78.7393 14.523 79.6493 14.523 80.464C14.523 81.1053 14.5837 81.66 14.705 82.128C14.8437 82.596 15.0343 82.9427 15.277 83.168C15.4157 83.2893 15.615 83.35 15.875 83.35C16.1523 83.35 16.4643 83.2893 16.811 83.168C17.175 83.0293 17.5563 82.8733 17.955 82.7C18.3537 82.5267 18.631 82.4053 18.787 82.336C19.1857 82.18 19.5583 81.998 19.905 81.79C20.269 81.582 20.5377 81.3913 20.711 81.218C21.1617 80.8887 21.5257 80.724 21.803 80.724C22.0283 80.6547 22.2017 80.724 22.323 80.932C22.4617 81.14 22.531 81.426 22.531 81.79C22.531 82.0327 22.3663 82.3273 22.037 82.674C21.7077 83.0033 21.3177 83.298 20.867 83.558C20.6763 83.7487 20.2517 83.974 19.593 84.234C19.0383 84.6327 18.3883 84.988 17.643 85.3C16.915 85.612 16.2477 85.768 15.641 85.768C15.5023 85.768 15.329 85.7507 15.121 85.716ZM27.7257 85.014C27.3097 84.9793 26.8937 84.8493 26.4777 84.624C26.0617 84.3987 25.6804 84.1647 25.3337 83.922C24.9871 83.6793 24.7531 83.5147 24.6317 83.428C24.3371 83.1333 24.1117 82.8213 23.9557 82.492C23.7997 82.1453 23.6697 81.6947 23.5657 81.14C23.5311 80.932 23.5137 80.75 23.5137 80.594C23.5137 80.074 23.6004 79.4413 23.7737 78.696C23.9644 77.9333 24.1551 77.344 24.3457 76.928C24.7271 76.0093 25.5677 74.536 26.8677 72.508C26.9371 72.4387 26.9804 72.3953 26.9977 72.378C27.0324 72.3433 27.0411 72.326 27.0237 72.326C27.0237 72.3087 27.0237 72.3 27.0237 72.3C27.0237 72.1787 27.2751 71.6413 27.7777 70.688C28.0724 70.376 28.2197 70.1073 28.2197 69.882C28.2197 69.7607 28.1937 69.6653 28.1417 69.596C28.0897 69.5267 28.1591 69.3793 28.3497 69.154C28.5404 68.9113 28.8004 68.6513 29.1297 68.374C29.4764 68.0793 29.8404 67.828 30.2217 67.62C30.6897 67.256 31.1491 67.074 31.5997 67.074C31.7384 67.074 31.8511 67.1 31.9377 67.152C32.0417 67.1867 32.1024 67.2473 32.1197 67.334C32.1197 67.438 32.4664 67.4033 33.1597 67.23C33.4717 67.1607 33.6971 67.1173 33.8357 67.1C33.9051 67.0133 34.0784 66.944 34.3557 66.892C34.6504 66.8227 35.0577 66.7533 35.5777 66.684C35.8551 66.7013 36.1931 66.7013 36.5917 66.684C37.0077 66.6667 37.2764 66.6493 37.3977 66.632C37.5191 66.5973 37.6924 66.6753 37.9177 66.866C38.1604 67.0567 38.3511 67.2993 38.4897 67.594C38.5244 67.698 38.5417 67.776 38.5417 67.828C38.5417 68.088 38.3771 68.3133 38.0477 68.504C37.7184 68.6773 37.2417 68.7987 36.6177 68.868C35.9764 68.9547 35.4131 69.0413 34.9277 69.128C34.4424 69.2147 33.8357 69.336 33.1077 69.492L32.5617 69.596C32.0244 69.6827 31.6257 69.7953 31.3657 69.934C31.1057 70.0727 30.8284 70.376 30.5337 70.844C30.4124 70.9307 30.2564 71.156 30.0657 71.52C29.8751 71.8667 29.6844 72.2307 29.4937 72.612L28.9737 73.314C28.5751 73.8513 28.3237 74.2067 28.2197 74.38C28.1331 74.536 28.1157 74.6487 28.1677 74.718C28.2371 74.7353 28.3584 74.7613 28.5317 74.796C28.7224 74.8307 28.8784 74.8567 28.9997 74.874C29.1557 74.7873 29.3724 74.7267 29.6497 74.692C29.9271 74.6573 30.1264 74.6227 30.2477 74.588L30.8197 74.432C31.8944 74.1547 32.6831 73.9553 33.1857 73.834C33.6884 73.7127 34.0611 73.6347 34.3037 73.6C34.3904 73.5307 34.4944 73.496 34.6157 73.496C34.8064 73.496 34.9884 73.5913 35.1617 73.782C35.3524 73.9553 35.4911 74.1633 35.5777 74.406C35.6471 74.6487 35.6817 74.8047 35.6817 74.874C35.6817 75.1687 35.5084 75.394 35.1617 75.55C34.8151 75.6887 34.1217 75.8793 33.0817 76.122C31.5737 76.486 30.6291 76.72 30.2477 76.824C29.1211 77.1533 28.2891 77.318 27.7517 77.318C27.3011 77.318 27.0844 77.1707 27.1017 76.876C26.9457 76.7893 26.7637 76.9453 26.5557 77.344C26.3477 77.7427 26.1657 78.2367 26.0097 78.826C25.8711 79.4153 25.8017 79.9267 25.8017 80.36C25.8017 80.5853 25.8277 80.776 25.8797 80.932C26.0357 81.348 26.2697 81.7033 26.5817 81.998C26.8937 82.2753 27.3271 82.492 27.8817 82.648C28.0031 82.6653 28.1504 82.6827 28.3237 82.7C28.5144 82.7173 28.7311 82.726 28.9737 82.726C29.3204 82.726 29.6671 82.6567 30.0137 82.518C31.3657 82.2927 32.3191 81.9807 32.8737 81.582C32.9604 81.5473 33.0384 81.4867 33.1077 81.4C33.1944 81.3133 33.2724 81.27 33.3417 81.27L33.3157 81.322C33.3157 81.3393 33.3677 81.3047 33.4717 81.218C33.5757 81.114 33.6884 81.01 33.8097 80.906C34.2951 80.49 34.8324 80.282 35.4217 80.282C35.6297 80.282 35.8031 80.3167 35.9417 80.386C36.0977 80.438 36.1844 80.49 36.2017 80.542C36.3057 80.7153 36.2537 80.9927 36.0457 81.374C35.8377 81.7553 35.5084 82.154 35.0577 82.57C34.6244 82.986 34.1391 83.35 33.6017 83.662C32.7524 84.1127 31.7991 84.442 30.7417 84.65C29.7017 84.8753 28.6964 84.9967 27.7257 85.014ZM53.4964 70.012C53.5657 70.012 53.6004 70.0553 53.6004 70.142C53.6004 70.2113 53.5831 70.2893 53.5484 70.376C53.5311 70.4453 53.5137 70.532 53.4964 70.636L52.8464 73.054C52.7251 73.5047 52.3177 74.4927 51.6244 76.018C50.9484 77.5433 50.5151 78.462 50.3244 78.774C50.1511 79.2073 49.8651 79.762 49.4664 80.438C49.0677 81.0967 48.6517 81.6773 48.2184 82.18C47.7851 82.6827 47.4297 82.934 47.1524 82.934C46.7711 82.934 46.3811 82.7347 45.9824 82.336C45.6011 81.92 45.3584 81.426 45.2544 80.854C45.2371 80.698 45.1244 80.126 44.9164 79.138C44.7951 78.5313 44.6737 77.9247 44.5524 77.318C44.4484 76.694 44.3964 76.2433 44.3964 75.966C44.3964 75.8273 44.3877 75.706 44.3704 75.602C44.3531 75.4807 44.3444 75.368 44.3444 75.264L44.3704 74.328V74.224V74.042L44.3964 73.392C44.4311 73.1493 44.4484 72.924 44.4484 72.716C44.4484 72.5427 44.4311 72.456 44.3964 72.456C44.2924 72.456 44.0237 72.8373 43.5904 73.6C43.1571 74.3453 42.9404 74.7527 42.9404 74.822L40.9904 79.398C40.6611 80.074 40.2191 81.6427 39.6644 84.104C39.6644 84.0347 39.5604 84.2253 39.3524 84.676C39.1444 85.144 38.9451 85.378 38.7544 85.378C38.8237 85.378 38.7284 85.2827 38.4684 85.092C38.2084 84.9187 37.9571 84.728 37.7144 84.52C37.4717 84.312 37.3504 84.1473 37.3504 84.026C37.3504 83.6793 37.5844 82.7693 38.0524 81.296C38.5204 79.8227 38.9537 78.566 39.3524 77.526L39.8724 76.148C39.9937 75.836 40.2624 75.2553 40.6784 74.406C41.1117 73.5393 41.4151 72.9587 41.5884 72.664H41.5624C41.5624 72.5773 41.8137 72.0053 42.3164 70.948C42.8364 69.8907 43.2871 69.05 43.6684 68.426C43.9457 67.9407 44.1451 67.62 44.2664 67.464C44.4051 67.2907 44.5437 67.204 44.6824 67.204L44.8124 67.256H44.9164C45.5231 67.256 45.9911 67.308 46.3204 67.412C46.6497 67.516 46.8144 67.7067 46.8144 67.984C46.8144 68.3827 46.7624 69.0153 46.6584 69.882C46.6411 70.0553 46.6151 70.3327 46.5804 70.714C46.5457 71.0953 46.5284 71.4073 46.5284 71.65C46.5284 72.2567 46.5544 72.9327 46.6064 73.678C46.6757 74.406 46.7537 75.186 46.8404 76.018L46.9444 77.058L47.3864 79.944L47.6984 79.294C47.8717 78.9127 48.0364 78.5053 48.1924 78.072L48.5564 77.188L49.3364 75.264L49.5184 74.926C49.6917 74.614 49.8824 74.1893 50.0904 73.652C50.2984 73.0973 50.4457 72.664 50.5324 72.352C50.7404 71.728 50.9831 70.9653 51.2604 70.064C51.3644 69.752 51.4684 69.414 51.5724 69.05C51.6937 68.686 51.8237 68.296 51.9624 67.88C51.9797 67.8627 52.0231 67.8107 52.0924 67.724C52.1617 67.6373 52.2311 67.5073 52.3004 67.334L53.2104 67.126C53.4704 67.334 53.6611 67.5247 53.7824 67.698C53.9037 67.854 53.9644 68.0533 53.9644 68.296C53.9644 68.504 53.8951 68.8333 53.7564 69.284C53.6351 69.7173 53.5484 69.96 53.4964 70.012ZM56.5435 85.014C56.3008 85.0833 56.1188 85.118 55.9975 85.118C55.6855 85.118 55.4341 84.9967 55.2435 84.754C55.0528 84.5113 54.9575 84.1473 54.9575 83.662C54.9575 82.9687 55.1655 82.0673 55.5815 80.958L55.8675 80.1C56.7341 77.5693 57.2975 76.1133 57.5575 75.732C57.6441 75.524 57.6875 75.3073 57.6875 75.082C57.6875 74.9953 57.7308 74.8653 57.8175 74.692C57.9041 74.5187 57.9735 74.38 58.0255 74.276C58.2335 73.8947 58.3375 73.6087 58.3375 73.418C58.3375 73.3487 58.4415 73.002 58.6495 72.378C58.8575 71.7367 59.0655 71.2513 59.2735 70.922C59.3775 70.662 59.4988 70.4107 59.6375 70.168C59.7761 69.908 59.8455 69.7433 59.8455 69.674C59.8455 69.6393 59.6548 69.622 59.2735 69.622C58.7361 69.622 58.0688 69.648 57.2715 69.7C56.4915 69.752 55.9715 69.8127 55.7115 69.882C55.3475 69.9687 55.1308 70.0033 55.0615 69.986C54.9748 69.9513 54.8448 69.7867 54.6715 69.492C54.4981 69.18 54.4115 68.9027 54.4115 68.66C54.4115 68.452 54.4808 68.3133 54.6195 68.244C54.8968 68.0707 55.1741 67.958 55.4515 67.906C55.7461 67.854 56.1535 67.8107 56.6735 67.776C57.2108 67.7413 57.5835 67.7067 57.7915 67.672C58.1555 67.672 58.4935 67.6547 58.8055 67.62C59.1348 67.568 59.3255 67.542 59.3775 67.542C59.5161 67.542 59.6895 67.516 59.8975 67.464C60.3828 67.3773 60.7121 67.334 60.8855 67.334C61.1281 67.334 61.3708 67.308 61.6135 67.256C61.8908 67.2213 62.0728 67.204 62.1595 67.204H63.7715C63.9968 67.204 64.3088 67.1693 64.7075 67.1C65.1061 67.0307 65.4615 66.9613 65.7735 66.892C66.2415 66.788 66.6661 66.736 67.0475 66.736C67.4981 66.736 67.8708 66.8227 68.1655 66.996C68.4601 67.152 68.6421 67.386 68.7115 67.698C68.8675 68.5647 67.5588 69.076 64.7855 69.232C64.6295 69.2493 64.3261 69.2753 63.8755 69.31C63.4421 69.3447 63.1561 69.388 63.0175 69.44C62.8961 69.492 62.8355 69.57 62.8355 69.674C62.8355 69.778 62.7835 69.882 62.6795 69.986C62.5928 70.0727 62.5321 70.142 62.4975 70.194C62.3588 70.246 62.1248 70.6793 61.7955 71.494C61.4661 72.2913 61.3015 72.7853 61.3015 72.976C61.2841 73.0107 61.2495 73.08 61.1975 73.184C61.1455 73.288 61.1195 73.366 61.1195 73.418C60.9981 73.73 60.8075 74.1287 60.5475 74.614C60.0275 75.9833 59.6981 76.8327 59.5595 77.162L59.2735 77.864C58.8921 79.1293 58.6148 79.9873 58.4415 80.438C58.3895 80.5247 58.3201 80.6027 58.2335 80.672C58.1641 80.7413 58.1295 80.8367 58.1295 80.958C58.1295 81.0447 57.8781 81.738 57.3755 83.038C56.8728 84.338 56.5955 84.9967 56.5435 85.014ZM70.4338 85.3C69.6191 85.3 68.9518 85.248 68.4318 85.144C67.9291 85.0573 67.4784 84.858 67.0798 84.546C66.2478 83.922 65.8318 82.9947 65.8318 81.764C65.8318 81.244 65.9271 80.6027 66.1178 79.84C66.2044 79.3893 66.2998 79.008 66.4038 78.696C66.5251 78.3667 66.6291 78.202 66.7158 78.202L66.8978 77.24C66.9151 77.136 66.9498 76.9973 67.0018 76.824C67.0538 76.6333 67.0971 76.4947 67.1318 76.408C67.1664 76.3213 67.2184 76.2433 67.2878 76.174C67.3571 76.122 67.4611 75.888 67.5998 75.472C67.5998 75.4373 67.6084 75.3593 67.6258 75.238C67.6431 75.1167 67.6864 74.978 67.7558 74.822C68.0158 74.3887 68.1458 74.1027 68.1458 73.964C68.1631 73.912 68.2324 73.808 68.3538 73.652C68.4751 73.496 68.5704 73.314 68.6398 73.106L68.9778 72.508C69.4978 71.5893 69.8704 70.922 70.0958 70.506C70.3211 70.0727 70.4598 69.7173 70.5118 69.44C70.5638 69.3187 70.6331 69.102 70.7198 68.79C70.8238 68.478 70.9364 68.2613 71.0578 68.14C71.0058 68.036 71.1791 67.906 71.5778 67.75C71.9938 67.594 72.4964 67.4467 73.0858 67.308C73.6924 67.1693 74.2298 67.0827 74.6978 67.048C74.8018 66.9787 75.0358 66.9267 75.3998 66.892C75.7638 66.8573 76.1711 66.84 76.6218 66.84C76.9338 66.84 77.3671 66.8573 77.9218 66.892C78.1991 66.892 78.4331 66.9267 78.6238 66.996C78.8318 67.048 79.0138 67.1173 79.1698 67.204C79.3258 67.2733 79.4384 67.3253 79.5078 67.36C79.5424 67.3947 79.6551 67.5073 79.8458 67.698C80.0538 67.8713 80.1578 68.0533 80.1578 68.244C80.1578 68.4173 80.0451 68.5647 79.8198 68.686C79.7678 68.738 79.4818 68.7813 78.9618 68.816C78.4591 68.8507 77.9131 68.868 77.3238 68.868C76.6998 68.868 76.0151 68.946 75.2698 69.102C75.0098 69.154 74.8104 69.18 74.6718 69.18C74.4638 69.2493 74.2038 69.2927 73.8918 69.31C73.5971 69.3273 73.4064 69.336 73.3198 69.336C73.2504 69.336 73.0078 69.6653 72.5918 70.324C72.1931 70.9827 71.9851 71.3727 71.9678 71.494C71.9678 71.65 71.9158 71.8147 71.8118 71.988C71.7078 72.1613 71.5258 72.43 71.2658 72.794C71.0404 73.106 70.9278 73.4007 70.9278 73.678C70.9278 73.8513 70.9798 73.9553 71.0838 73.99C71.6384 73.9033 72.3058 73.8253 73.0858 73.756C73.8831 73.6693 74.4638 73.626 74.8278 73.626C75.0184 73.574 75.1744 73.548 75.2958 73.548C75.5384 73.548 75.7638 73.6087 75.9718 73.73C76.2491 73.782 76.3878 73.964 76.3878 74.276C76.3878 74.4147 76.3531 74.5447 76.2838 74.666C76.2318 74.7873 76.1624 74.8653 76.0758 74.9C75.9198 75.056 75.3824 75.2553 74.4638 75.498C73.5624 75.7407 72.6178 75.966 71.6298 76.174C70.6418 76.3647 70.0871 76.4427 69.9658 76.408C69.9138 76.2867 69.8618 76.226 69.8098 76.226C69.6364 76.226 69.4198 76.798 69.1598 77.942C68.8478 78.6353 68.6571 79.0947 68.5878 79.32C68.5184 79.528 68.4144 80.022 68.2758 80.802C68.2064 81.114 68.1718 81.3307 68.1718 81.452C68.1718 82.128 68.5704 82.648 69.3678 83.012C69.6624 83.064 69.9658 83.09 70.2778 83.09C70.8498 83.09 71.5431 82.986 72.3578 82.778C72.4271 82.7433 72.9558 82.4487 73.9438 81.894C73.9958 81.894 74.1258 81.8593 74.3338 81.79C74.5591 81.7033 74.6891 81.66 74.7238 81.66C74.8624 81.4693 75.0358 81.374 75.2438 81.374C75.2958 81.374 75.4084 81.4607 75.5818 81.634C75.7551 81.8073 75.9111 82.0153 76.0498 82.258C76.1884 82.4833 76.2578 82.7173 76.2578 82.96C76.2578 83.1333 75.9978 83.35 75.4778 83.61C74.9751 83.8527 74.2211 84.1733 73.2158 84.572C72.4878 84.884 71.9764 85.0833 71.6818 85.17C71.3871 85.2567 70.9711 85.3 70.4338 85.3ZM91.3284 67.178C92.1778 67.6807 92.8018 68.2613 93.2004 68.92C93.5991 69.5787 93.7984 70.246 93.7984 70.922C93.7984 71.3727 93.7204 71.7973 93.5644 72.196C93.2871 72.8893 92.5851 73.7127 91.4584 74.666C90.3318 75.602 89.2831 76.278 88.3124 76.694C87.3591 77.162 86.3538 77.5607 85.2964 77.89L84.8804 77.968C85.3658 78.9213 85.9724 79.8053 86.7004 80.62C87.2378 81.244 87.9744 81.9633 88.9104 82.778C89.8464 83.5753 90.6524 84.1387 91.3284 84.468C91.3978 84.5373 91.4324 84.6413 91.4324 84.78C91.4324 85.0053 91.3718 85.2653 91.2504 85.56C91.1291 85.8547 91.0338 86.0193 90.9644 86.054C90.7564 86.106 90.6091 86.132 90.5224 86.132C90.0891 86.132 89.6471 85.9847 89.1964 85.69C88.3818 85.2047 87.5931 84.6413 86.8304 84C86.0678 83.3413 85.2358 82.492 84.3344 81.452C84.0398 81.1053 83.8144 80.776 83.6584 80.464C83.5024 80.1347 83.2684 79.5973 82.9564 78.852C82.5578 80.308 81.7864 82.544 80.6424 85.56C80.6251 85.6467 80.5471 85.716 80.4084 85.768C80.2871 85.82 80.1398 85.846 79.9664 85.846C79.5504 85.846 79.1951 85.7247 78.9004 85.482C78.8658 85.4473 78.8051 85.3867 78.7184 85.3C78.6318 85.2133 78.5711 85.1353 78.5364 85.066C78.5018 85.014 78.4844 84.9533 78.4844 84.884C78.4844 84.728 78.6231 84.338 78.9004 83.714L79.2124 83.012C79.3164 82.388 79.5678 81.6687 79.9664 80.854C80.0878 80.438 80.7898 78.67 82.0724 75.55L82.5404 74.406L82.8264 73.73C83.2944 72.5513 83.9271 71.0867 84.7244 69.336C84.7938 69.1453 84.7591 68.9633 84.6204 68.79C84.4991 68.5993 84.2998 68.504 84.0224 68.504C83.8318 68.2787 83.7364 68.062 83.7364 67.854C83.7364 67.646 83.8231 67.5073 83.9964 67.438L86.3884 66.632C86.9951 66.4933 87.5844 66.424 88.1564 66.424C89.3178 66.424 90.3751 66.6753 91.3284 67.178ZM87.2464 74.926C90.0718 73.6087 91.4411 72.2307 91.3544 70.792C91.3544 70.4453 91.1984 70.064 90.8864 69.648C90.5918 69.2147 90.2798 68.946 89.9504 68.842C89.1184 68.634 88.5204 68.53 88.1564 68.53C87.8618 68.53 87.6451 68.5993 87.5064 68.738C87.3851 68.8593 87.2811 69.0847 87.1944 69.414C87.1944 69.4487 87.0904 69.674 86.8824 70.09C86.4318 71.0433 86.1024 71.7887 85.8944 72.326C85.7211 72.638 85.5304 73.028 85.3224 73.496C85.0451 74.068 84.8198 74.536 84.6464 74.9C84.4731 75.2467 84.3691 75.4807 84.3344 75.602C84.3171 75.706 84.3431 75.7927 84.4124 75.862C84.7591 75.8447 85.1144 75.7667 85.4784 75.628C85.8598 75.4893 86.4491 75.2553 87.2464 74.926Z" fill="white"/>
<path d="M11.562 60.386C11.254 60.218 11.03 60.064 10.89 59.924C10.778 59.784 10.722 59.602 10.722 59.378C10.722 59.098 10.834 58.706 11.058 58.202C11.31 57.67 11.73 56.844 12.318 55.724C12.486 55.36 12.808 54.716 13.284 53.792C14.488 51.496 15.09 49.802 15.09 48.71C15.062 48.654 15.048 48.57 15.048 48.458C15.048 48.178 15.272 47.926 15.72 47.702C15.804 47.618 16.098 47.38 16.602 46.988C17.134 46.596 17.554 46.148 17.862 45.644C18.226 44.804 18.688 43.88 19.248 42.872C19.808 41.836 20.774 40.156 22.146 37.832C23.49 35.368 24.918 33.142 26.43 31.154C26.71 30.762 27.018 30.454 27.354 30.23C27.718 30.006 28.026 29.894 28.278 29.894C29.146 29.894 30.028 30.23 30.924 30.902C31.848 31.574 32.45 32.246 32.73 32.918C32.842 33.114 32.898 33.534 32.898 34.178C32.898 35.046 32.8 36.516 32.604 38.588C32.548 38.952 32.492 39.526 32.436 40.31C32.352 41.57 32.226 42.914 32.058 44.342C31.75 47.478 31.526 49.928 31.386 51.692C31.246 53.456 31.176 55.108 31.176 56.648C31.176 57.432 31.19 58.006 31.218 58.37V58.664L31.176 59.63C31.008 59.798 30.672 59.882 30.168 59.882C29.608 59.882 29.048 59.784 28.488 59.588C27.928 59.42 27.62 59.21 27.564 58.958C27.536 58.93 27.494 58.902 27.438 58.874C27.382 58.846 27.354 58.72 27.354 58.496L27.396 57.572L27.522 55.22L27.732 48.794L27.186 48.836C26.626 48.836 25.436 48.948 23.616 49.172C21.824 49.396 20.69 49.578 20.214 49.718C19.962 49.718 19.654 49.886 19.29 50.222C18.926 50.558 18.604 50.992 18.324 51.524C18.24 51.804 18.044 52.21 17.736 52.742C17.428 53.246 17.274 53.54 17.274 53.624C17.106 53.736 16.952 53.89 16.812 54.086C16.7 54.254 16.63 54.366 16.602 54.422C16.602 54.73 16.322 55.528 15.762 56.816C15.23 58.076 14.698 59.112 14.166 59.924L13.032 61.52L11.562 60.386ZM21.6 45.938C21.796 45.91 22.188 45.854 22.776 45.77C23.364 45.658 23.882 45.588 24.33 45.56C25.674 45.224 26.598 45.056 27.102 45.056C27.382 45.056 27.578 45.084 27.69 45.14C27.774 45.252 27.858 45.336 27.942 45.392C28.054 45.42 28.124 45.434 28.152 45.434C28.208 45.21 28.432 43.684 28.824 40.856C29.216 38.028 29.412 36.292 29.412 35.648C29.412 35.2 29.398 34.822 29.37 34.514C29.342 34.178 29.314 33.968 29.286 33.884C29.034 33.884 28.46 34.556 27.564 35.9C26.668 37.216 25.8 38.714 24.96 40.394C24.316 41.542 23.868 42.116 23.616 42.116C23.42 42.312 23 42.97 22.356 44.09C21.712 45.21 21.46 45.826 21.6 45.938Z" fill="#710707"/>
<path d="M54.4332 31.826C55.8052 32.638 56.8132 33.576 57.4572 34.64C58.1012 35.704 58.4232 36.782 58.4232 37.874C58.4232 38.602 58.2972 39.288 58.0452 39.932C57.5972 41.052 56.4632 42.382 54.6432 43.922C52.8232 45.434 51.1292 46.526 49.5612 47.198C48.0212 47.954 46.3972 48.598 44.6892 49.13L44.0172 49.256C44.8012 50.796 45.7812 52.224 46.9572 53.54C47.8252 54.548 49.0152 55.71 50.5272 57.026C52.0392 58.314 53.3412 59.224 54.4332 59.756C54.5452 59.868 54.6012 60.036 54.6012 60.26C54.6012 60.624 54.5032 61.044 54.3072 61.52C54.1112 61.996 53.9572 62.262 53.8452 62.318C53.5092 62.402 53.2712 62.444 53.1312 62.444C52.4312 62.444 51.7172 62.206 50.9892 61.73C49.6732 60.946 48.3992 60.036 47.1672 59C45.9352 57.936 44.5912 56.564 43.1352 54.884C42.6592 54.324 42.2952 53.792 42.0432 53.288C41.7912 52.756 41.4132 51.888 40.9092 50.684C40.2652 53.036 39.0192 56.648 37.1712 61.52C37.1432 61.66 37.0172 61.772 36.7932 61.856C36.5972 61.94 36.3592 61.982 36.0792 61.982C35.4072 61.982 34.8332 61.786 34.3572 61.394C34.3012 61.338 34.2032 61.24 34.0632 61.1C33.9232 60.96 33.8252 60.834 33.7692 60.722C33.7132 60.638 33.6852 60.54 33.6852 60.428C33.6852 60.176 33.9092 59.546 34.3572 58.538L34.8612 57.404C35.0292 56.396 35.4352 55.234 36.0792 53.918C36.2752 53.246 37.4092 50.39 39.4812 45.35L40.2372 43.502L40.6992 42.41C41.4552 40.506 42.4772 38.14 43.7652 35.312C43.8772 35.004 43.8212 34.71 43.5972 34.43C43.4012 34.122 43.0792 33.968 42.6312 33.968C42.3232 33.604 42.1692 33.254 42.1692 32.918C42.1692 32.582 42.3092 32.358 42.5892 32.246L46.4532 30.944C47.4332 30.72 48.3852 30.608 49.3092 30.608C51.1852 30.608 52.8932 31.014 54.4332 31.826ZM47.8392 44.342C52.4032 42.214 54.6152 39.988 54.4752 37.664C54.4752 37.104 54.2232 36.488 53.7192 35.816C53.2432 35.116 52.7392 34.682 52.2072 34.514C50.8632 34.178 49.8972 34.01 49.3092 34.01C48.8332 34.01 48.4832 34.122 48.2592 34.346C48.0632 34.542 47.8952 34.906 47.7552 35.438C47.7552 35.494 47.5872 35.858 47.2512 36.53C46.5232 38.07 45.9912 39.274 45.6552 40.142C45.3752 40.646 45.0672 41.276 44.7312 42.032C44.2832 42.956 43.9192 43.712 43.6392 44.3C43.3592 44.86 43.1912 45.238 43.1352 45.434C43.1072 45.602 43.1492 45.742 43.2612 45.854C43.8212 45.826 44.3952 45.7 44.9832 45.476C45.5992 45.252 46.5512 44.874 47.8392 44.342Z" fill="#9D8665"/>
<path d="M80.9749 34.64C81.0029 34.752 81.0169 34.892 81.0169 35.06C81.0169 35.424 80.8489 35.69 80.5129 35.858C80.3449 35.914 80.0089 36.026 79.5049 36.194C79.0289 36.334 78.6369 36.404 78.3289 36.404C78.0769 36.404 77.8809 36.376 77.7409 36.32C77.4609 36.068 77.1249 35.886 76.7329 35.774C76.3409 35.662 75.5289 35.564 74.2969 35.48C73.9329 35.536 73.6109 35.564 73.3309 35.564C73.0509 35.564 72.8269 35.578 72.6589 35.606C72.4349 36.334 72.1549 37.02 71.8189 37.664C71.7069 38.196 71.5529 38.672 71.3569 39.092C71.1609 39.652 71.0769 39.974 71.1049 40.058C71.0209 40.17 70.7549 40.884 70.3069 42.2C69.8589 43.488 69.4389 44.748 69.0469 45.98C68.7669 46.848 68.5569 47.478 68.4169 47.87C68.2769 48.15 68.0949 48.598 67.8709 49.214C67.6749 49.802 67.5349 50.222 67.4509 50.474L66.4009 53.372C66.1769 53.792 65.8969 54.464 65.5609 55.388C65.2529 56.284 65.0009 57.096 64.8049 57.824C64.4969 58.916 64.2169 59.7 63.9649 60.176C63.7409 60.652 63.5449 60.946 63.3769 61.058C63.2089 61.17 62.9709 61.226 62.6629 61.226C62.2149 61.226 61.8229 61.002 61.4869 60.554C61.1509 60.106 60.9829 59.686 60.9829 59.294C60.9829 58.678 61.1929 57.642 61.6129 56.186C62.0609 54.73 62.4809 53.568 62.8729 52.7C62.9849 52.196 63.0829 51.79 63.1669 51.482C63.2789 51.174 63.3489 50.95 63.3769 50.81C63.4609 50.698 63.5869 50.404 63.7549 49.928C63.9509 49.424 64.1049 48.962 64.2169 48.542C64.3009 48.038 65.1689 45.224 66.8209 40.1L67.1149 39.218C67.3669 38.798 67.6049 38.266 67.8289 37.622C68.0529 37.482 68.1649 37.188 68.1649 36.74C68.1649 36.656 68.2069 36.544 68.2909 36.404C68.4029 36.264 68.4589 36.166 68.4589 36.11C68.4869 36.082 68.5289 36.068 68.5849 36.068C68.6129 36.068 68.6409 36.082 68.6689 36.11C68.7249 36.11 68.8089 36.054 68.9209 35.942H68.8789L66.8209 36.152L65.8969 36.236C64.2449 36.376 63.3069 36.474 63.0829 36.53L62.4949 36.572C61.6269 36.572 61.0109 36.404 60.6469 36.068C60.3109 35.704 60.1989 35.298 60.3109 34.85C60.3949 34.486 60.6049 34.192 60.9409 33.968C61.3049 33.744 61.8929 33.548 62.7049 33.38C62.9569 33.324 63.4469 33.24 64.1749 33.128L65.3089 32.918L66.7369 32.75C68.3609 32.498 70.0829 32.33 71.9029 32.246C72.6589 32.218 73.2889 32.19 73.7929 32.162C74.3249 32.106 74.6749 32.064 74.8429 32.036C75.2349 32.064 75.8649 32.134 76.7329 32.246C77.6289 32.358 78.2729 32.484 78.6649 32.624C79.2809 32.764 79.7849 33.016 80.1769 33.38C80.5689 33.744 80.8349 34.164 80.9749 34.64Z" fill="white"/>
</svg>
