<?xml version="1.0" encoding="UTF-8"?>
<!DOCTYPE svg PUBLIC "-//W3C//DTD SVG 1.1//EN" "http://www.w3.org/Graphics/SVG/1.1/DTD/svg11.dtd">
<!-- Creator: CorelDRAW 2017 -->
<svg xmlns="http://www.w3.org/2000/svg" xml:space="preserve" width="0.67732cm" height="0.46566cm" version="1.1" style="shape-rendering:geometricPrecision; text-rendering:geometricPrecision; image-rendering:optimizeQuality; fill-rule:evenodd; clip-rule:evenodd"
viewBox="0 0 677.32 465.66"
 xmlns:xlink="http://www.w3.org/1999/xlink">
 <defs>
  <style type="text/css">
   <![CDATA[
    .fil2 {fill:#FEFEFE;fill-rule:nonzero}
    .fil0 {fill:#710707;fill-rule:nonzero}
    .fil1 {fill:#9D8665;fill-rule:nonzero}
   ]]>
  </style>
 </defs>
 <g id="Слой_x0020_1">
  <metadata id="CorelCorpID_0Corel-Layer"/>
  <g id="_1673907731040">
   <path class="fil0" d="M7.22 254c-4.22,-2.35 -6.51,-4.93 -6.87,-7.75 -0.35,-2.81 1.24,-7.74 4.76,-14.79 3.52,-7.04 9.04,-17.96 16.55,-32.75 5.64,-10.57 9.92,-18.85 12.86,-24.83 2.93,-5.99 4.93,-10.28 5.99,-12.86 1.05,-2.58 1.58,-4.23 1.58,-4.93 -0.47,-2.11 -0.23,-3.82 0.71,-5.11 0.93,-1.29 2.46,-2.41 4.57,-3.34 1.18,-1.18 3.12,-3.29 5.82,-6.34 2.7,-3.06 5.22,-6.7 7.57,-10.92 2.11,-4.93 4.58,-9.98 7.39,-15.15 2.82,-5.16 6.58,-11.68 11.28,-19.55 4.69,-7.86 10.8,-18.13 18.31,-30.81 4.7,-8.22 9.86,-16.62 15.5,-25.19 5.63,-8.57 11.62,-17.08 17.96,-25.53 2.58,-3.29 4.93,-5.93 7.04,-7.93 2.12,-1.99 4.23,-2.87 6.34,-2.64 2.82,0 6.05,0.94 9.69,2.82 3.64,1.88 6.99,4.34 10.04,7.4 3.05,3.05 5.28,6.34 6.69,9.86 1.17,1.88 1.64,5.87 1.41,11.97 -0.24,6.11 -0.71,13.5 -1.41,22.19 -0.7,8.69 -1.53,17.96 -2.47,27.83 -0.7,9.62 -1.76,21.01 -3.17,34.16 -1.4,13.15 -2.75,26.89 -4.05,41.21 -1.29,14.32 -2.29,28.12 -2.99,41.38 -0.7,13.27 -0.7,24.83 0,34.7 0.24,2.11 0.24,4.11 0,5.98 -0.23,1.88 -0.35,3.41 -0.35,4.58 -1.41,1.41 -3.7,2.06 -6.87,1.94 -3.17,-0.12 -6.22,-0.88 -9.16,-2.29 -2.93,-1.41 -4.63,-3.17 -5.1,-5.28 -0.71,-0.71 -1.12,-1.7 -1.24,-3 -0.11,-1.29 -0.06,-4.05 0.18,-8.27 0.23,-4.23 0.47,-10.92 0.7,-20.08l1.76 -57.06 -4.57 0.36c-2.12,0 -6.11,0.23 -11.98,0.7 -5.87,0.47 -12.21,1.12 -19.02,1.94 -6.81,0.82 -13.09,1.64 -18.84,2.46 -5.75,0.82 -9.69,1.59 -11.8,2.29 -2.11,0 -4.64,1.41 -7.57,4.23 -2.94,2.82 -5.7,6.46 -8.28,10.92 -0.94,3.28 -2.64,6.75 -5.11,10.39 -2.46,3.64 -3.7,6.04 -3.7,7.22 -1.64,1.17 -2.99,2.58 -4.05,4.22 -1.05,1.65 -1.58,2.47 -1.58,2.47 0,1.41 -1.12,4.87 -3.35,10.39 -2.23,5.52 -4.99,11.62 -8.27,18.31 -3.29,6.7 -6.58,12.51 -9.87,17.44l-7.39 11.27 -5.64 -4.23zm72.91 -113.41c0,0 1.23,-0.23 3.7,-0.7 2.46,-0.47 5.4,-1 8.8,-1.59 3.41,-0.59 6.52,-0.88 9.34,-0.88 9.86,-2.35 17.02,-3.93 21.48,-4.75 4.46,-0.83 7.57,-1.24 9.34,-1.24 1.76,0 3.34,0.36 4.75,1.06 0.94,1.17 1.82,1.88 2.64,2.11 0.82,0.24 1.23,0.36 1.23,0.36 0.24,-0.47 0.59,-3.17 1.06,-8.1 0.47,-4.94 1.12,-11.04 1.94,-18.32 0.82,-7.28 1.64,-14.85 2.46,-22.72 0.83,-7.86 1.47,-15.14 1.94,-21.83 0.47,-6.7 0.82,-11.8 1.06,-15.33 0.23,-4.46 0.47,-8.51 0.7,-12.15 0.24,-3.64 0.35,-5.46 0.35,-5.46 -1.4,0 -4.4,2.59 -8.98,7.75 -4.58,5.17 -9.68,11.98 -15.32,20.43 -5.63,8.45 -10.92,17.49 -15.85,27.12 -2.35,4.46 -4.58,8.45 -6.69,11.98 -2.11,3.52 -3.76,5.28 -4.93,5.28 -0.47,0.47 -1.82,2.52 -4.05,6.16 -2.23,3.64 -4.64,7.75 -7.22,12.33 -2.58,4.58 -4.7,8.69 -6.34,12.33 -1.64,3.64 -2.11,5.69 -1.41,6.16z"/>
   <path id="1" class="fil1" d="M209.04 263.51c-0.94,2.35 -2.64,3.64 -5.11,3.88 -2.46,0.23 -5.69,-1.18 -9.68,-4.23 -2.82,-2.82 -4.64,-4.99 -5.46,-6.52 -0.82,-1.52 -0.41,-4.1 1.23,-7.74 1.64,-3.64 4.46,-10.04 8.45,-19.2 0.94,-5.63 2.59,-11.33 4.93,-17.08 2.35,-5.75 4.11,-9.8 5.29,-12.15 0.94,-3.29 2.87,-8.75 5.81,-16.38 2.93,-7.63 6.34,-16.14 10.21,-25.54 3.88,-9.39 7.58,-18.25 11.1,-26.59 3.52,-8.33 6.1,-14.61 7.75,-18.84 3.99,-9.39 8.1,-19.26 12.32,-29.59 4.23,-10.33 9.98,-23.36 17.26,-39.09 0.94,-2.35 1.47,-4.82 1.59,-7.4 0.11,-2.58 -1.82,-3.87 -5.81,-3.87 -2.35,-2.59 -3.64,-5.23 -3.88,-7.93 -0.23,-2.7 0.94,-4.63 3.52,-5.81l18.32 -7.4c11.03,-2.58 22.36,-3.34 33.99,-2.28 11.62,1.05 22.6,4.28 32.93,9.68 11.27,6.58 19.25,13.21 23.95,19.9 4.69,6.69 7.1,13.44 7.22,20.25 0.12,6.81 -1.12,13.5 -3.7,20.08 -1.88,4.93 -5.46,10.33 -10.74,16.2 -5.29,5.87 -11.39,11.74 -18.32,17.61 -6.92,5.87 -14.09,11.21 -21.48,16.03 -7.4,4.81 -14.27,8.51 -20.61,11.09 -5.87,2.82 -11.97,5.28 -18.31,7.4 -6.34,2.11 -12.92,4.22 -19.73,6.34 -3.75,0.94 -8.21,1.41 -13.38,1.41 -5.16,0 -9.04,-0.47 -11.62,-1.41l-5.99 16.55c-2.35,8.45 -6.4,21.02 -12.15,37.69 -5.75,16.67 -12.39,34.98 -19.9,54.94zm139.83 3.88c-1.88,0.7 -4.05,0.94 -6.52,0.7 -2.46,-0.23 -6.4,-2.11 -11.8,-5.63 -10.33,-6.11 -20.66,-13.51 -30.99,-22.19 -10.33,-8.69 -21.96,-20.43 -34.87,-35.22 -4.93,-5.87 -9.1,-11.27 -12.5,-16.21 -3.41,-4.93 -6.99,-11.85 -10.75,-20.78l-4.93 -19.02 9.51 -5.28 12.68 12.68c3.76,8.22 8.63,16.09 14.62,23.6 5.99,7.51 11.56,14.2 16.73,20.07 4.22,4.94 9.98,10.86 17.26,17.79 7.27,6.93 15.02,13.56 23.24,19.9 8.22,6.34 15.62,11.15 22.19,14.44 1.41,1.18 1.88,2.94 1.41,5.29 -0.47,2.34 -1.23,4.52 -2.29,6.51 -1.06,2 -2.05,3.11 -2.99,3.35zm-90.87 -131.03c5.4,-0.46 11.74,-1.81 19.02,-4.05 7.27,-2.23 14.55,-4.87 21.83,-7.92 6.81,-3.29 14.03,-7.22 21.66,-11.8 7.64,-4.58 14.74,-9.69 21.31,-15.32 6.58,-5.64 11.92,-11.51 16.03,-17.61 4.11,-6.11 5.93,-12.21 5.46,-18.32 0,-3.05 -1.18,-6.22 -3.52,-9.51 -2.35,-3.28 -5.17,-6.22 -8.46,-8.8 -3.29,-2.58 -6.45,-4.34 -9.51,-5.28 -9.39,-2.35 -17.14,-3.88 -23.24,-4.58 -6.11,-0.71 -10.8,-0.3 -14.09,1.23 -3.29,1.53 -5.52,4.64 -6.69,9.33 0,0.71 -0.94,3.06 -2.82,7.05 -1.88,3.99 -4.17,8.92 -6.87,14.79 -2.7,5.87 -5.34,12.09 -7.92,18.67 -6.81,13.85 -11.98,24.36 -15.5,31.52 -3.52,7.16 -5.75,12.15 -6.69,14.97 -0.94,2.82 -0.94,4.7 0,5.63z"/>
   <path id="2" class="fil2" d="M421.07 257.88c-1.88,0 -4,-1.53 -6.34,-4.58 -2.35,-3.05 -3.41,-5.99 -3.17,-8.81 0.23,-3.75 1.29,-9.15 3.17,-16.2 1.87,-7.04 3.99,-14.2 6.34,-21.48 2.34,-7.28 4.46,-13.03 6.33,-17.26 0.94,-3.76 1.82,-7.1 2.65,-10.04 0.82,-2.93 1.35,-4.87 1.58,-5.81 0.71,-0.94 1.82,-3.41 3.35,-7.4 1.52,-3.99 2.76,-7.86 3.7,-11.62 0.47,-1.88 1.46,-5.46 2.99,-10.74 1.53,-5.29 3.4,-11.45 5.63,-18.49 2.24,-7.05 4.47,-13.97 6.7,-20.78 2.23,-6.81 4.16,-12.8 5.81,-17.97 1.64,-5.16 2.7,-8.57 3.17,-10.21 1.88,-2.82 3.29,-5.52 4.22,-8.1 0.94,-2.58 1.53,-4.35 1.77,-5.28 1.4,-0.94 2.23,-2.18 2.46,-3.7 0.24,-1.53 0.35,-2.76 0.35,-3.7 0,-1.18 0.41,-2.11 1.24,-2.82 0.82,-0.7 1.23,-1.53 1.23,-2.46 0.94,-0.71 1.53,-1.82 1.76,-3.35 0.23,-1.53 0.94,-2.88 2.11,-4.05l1.76 -5.99 20.78 -0.35c-0.47,2.82 -1.17,6.28 -2.11,10.39 -0.94,4.11 -3.17,9.57 -6.69,16.38 -1.17,4.69 -2.52,8.92 -4.05,12.68 -1.53,3.75 -2.17,6.22 -1.94,7.39 -0.47,0.47 -1.47,2.82 -2.99,7.05 -1.53,4.22 -3.29,9.39 -5.29,15.49 -1.99,6.11 -3.99,12.21 -5.98,18.32 -2,6.1 -3.76,11.45 -5.29,16.03 -1.52,4.57 -2.52,7.45 -2.99,8.62 -1.88,3.76 -3.99,9.28 -6.34,16.56 -2.35,7.28 -5.87,17.14 -10.57,29.58 -1.87,3.76 -4.16,9.4 -6.86,16.91 -2.7,7.51 -4.88,14.32 -6.52,20.43 -2.58,9.16 -4.4,15.55 -5.46,19.19 -1.06,3.64 -1.94,5.64 -2.64,5.99 -0.7,0.35 -2,0.41 -3.87,0.18zm2.81 -209.92c-6.57,0.23 -11.44,-0.12 -14.61,-1.06 -3.17,-0.94 -4.29,-3.28 -3.35,-7.04 0.7,-2.82 2.23,-4.93 4.58,-6.34 2.35,-1.41 5.75,-2.47 10.21,-3.17 2.59,-0.47 5.93,-1.06 10.04,-1.76 4.11,-0.71 8.04,-1.41 11.8,-2.11 7.75,-0.94 14.15,-1.77 19.2,-2.47 5.04,-0.7 10.27,-1.29 15.67,-1.76 5.4,-0.47 12.21,-0.94 20.43,-1.41 6.81,-0.47 12.62,-0.88 17.43,-1.23 4.81,-0.36 7.22,-0.53 7.22,-0.53 0.71,0 3.17,0.23 7.4,0.7 4.22,0.47 8.8,1.06 13.73,1.76 4.94,0.71 8.57,1.53 10.92,2.47 5.4,1.17 9.34,2.82 11.8,4.93 2.47,2.11 4.17,5.17 5.11,9.16 0.7,2.82 0.7,4.52 0,5.11 -0.71,0.58 -2,1.35 -3.88,2.28 -5.4,1.65 -9.39,2.47 -11.97,2.47 -2.58,0 -5.52,-0.59 -8.81,-1.76 -1.17,-1.17 -2.52,-2.23 -4.05,-3.17 -1.52,-0.94 -4.11,-1.7 -7.74,-2.29 -3.64,-0.59 -9.34,-1.12 -17.09,-1.59 -6.57,0.71 -12.32,1.06 -17.26,1.06 -4.93,0 -7.39,0.59 -7.39,1.76l-20.78 1.06 -17.26 1.76c-2.35,0.24 -5.64,0.53 -9.86,0.88 -4.23,0.35 -8.34,0.71 -12.33,1.06 -3.99,0.35 -7.04,0.76 -9.16,1.23z"/>
   <path class="fil2" d="M23.88 460.46c-2.18,-0.88 -4.4,-1.82 -6.65,-2.84 -2.26,-1.02 -4.37,-2.51 -6.34,-4.48 -1.96,-1.96 -3.67,-4.69 -5.13,-8.19 -1.45,-4.22 -2.44,-8.36 -2.95,-12.44 -0.5,-4.08 -0.69,-8.81 -0.54,-14.19 0,-7.57 0.54,-14.16 1.64,-19.76 1.09,-5.61 2.8,-11.32 5.13,-17.14 0.29,-0.44 0.83,-1.71 1.64,-3.82 0.8,-2.11 1.74,-4.41 2.83,-6.88 1.1,-2.48 1.93,-4.37 2.51,-5.68 1.17,-2.47 2.95,-5.78 5.35,-9.93 2.41,-4.15 4.99,-8.19 7.75,-12.12 4.23,-6.26 7.72,-11.21 10.49,-14.85 2.76,-3.64 5.38,-6.69 7.86,-9.17 2.47,-2.47 5.27,-4.84 8.4,-7.09 3.13,-2.26 7.17,-5.06 12.12,-8.41 3.2,-2.33 6.73,-3.57 10.59,-3.71 3.86,-0.15 7.46,0.69 10.81,2.51 3.34,1.82 5.82,4.48 7.42,7.97 1.6,3.06 2.4,6.73 2.4,11.03 0,4.29 -0.65,8.8 -1.96,13.53 -1.31,4.73 -3.13,9.21 -5.46,13.43 -2.33,4.22 -5.02,7.71 -8.08,10.48 -1.89,1.75 -3.6,2.4 -5.13,1.97 -1.53,-0.44 -3.31,-1.61 -5.35,-3.5 -1.31,-2.47 -2,-3.93 -2.07,-4.36 -0.08,-0.44 0.18,-0.73 0.76,-0.88 0.87,-1.02 2.04,-2.76 3.49,-5.24 1.46,-2.47 2.91,-5.13 4.37,-7.97 1.46,-2.84 2.47,-5.13 3.06,-6.88 1.16,-6.11 1.96,-10.44 2.4,-12.99 0.43,-2.54 0,-4.47 -1.31,-5.78 -0.58,-0.58 -1.42,-0.8 -2.51,-0.66 -1.09,0.15 -2.88,0.88 -5.35,2.19 -3.35,1.45 -7.72,4.69 -13.1,9.71 -5.39,5.02 -10.34,10.59 -14.85,16.71 -5.82,7.71 -10.7,14.55 -14.63,20.52 -3.93,5.97 -6.91,12.08 -8.95,18.34 -0.29,0.58 -0.76,1.67 -1.42,3.27 -0.65,1.61 -0.98,2.41 -0.98,2.41 0.14,0.58 -0.07,2 -0.66,4.25 -0.58,2.26 -1.23,4.19 -1.96,5.79 -1.6,6.7 -2.55,13.65 -2.84,20.85 -0.29,7.21 0.11,13.58 1.2,19.11 1.09,5.53 2.73,9.38 4.91,11.57 1.9,1.31 4.48,1.75 7.75,1.31 3.28,-0.44 7.03,-1.46 11.25,-3.06 4.22,-1.6 8.51,-3.35 12.88,-5.24 3.49,-1.45 6.7,-3.06 9.61,-4.8 2.91,-1.75 5.09,-3.28 6.55,-4.59 1.16,-0.87 2.65,-1.78 4.47,-2.73 1.82,-0.94 3.39,-1.42 4.7,-1.42 2.04,-0.72 3.2,-1.01 3.49,-0.87 0.29,0.15 0.44,0.8 0.44,1.97 0,2.03 -1.13,4.29 -3.39,6.76 -2.25,2.48 -5.13,4.74 -8.62,6.77 -1.16,1.17 -2.69,2.4 -4.59,3.71 -1.89,1.31 -3.85,2.33 -5.89,3.06 -3.06,2.33 -6.84,4.59 -11.35,6.77 -4.52,2.18 -9.07,3.86 -13.65,5.02 -4.59,1.17 -8.77,1.38 -12.56,0.66z"/>
   <path id="1" class="fil2" d="M128.47 453.47c-4.52,-0.29 -8.48,-1.67 -11.9,-4.15 -3.42,-2.47 -7.03,-5.02 -10.81,-7.64 -2.48,-2.47 -4.44,-5.13 -5.9,-7.97 -1.45,-2.84 -2.62,-6.59 -3.49,-11.24 -0.58,-2.77 -0.58,-6.26 0,-10.48 0.58,-4.23 1.53,-8.48 2.84,-12.78 1.31,-4.29 2.55,-7.75 3.71,-10.37 1.75,-4.07 3.97,-8.48 6.66,-13.21 2.69,-4.73 5.39,-9.24 8.08,-13.54 2.69,-4.29 4.84,-7.75 6.44,-10.37 1.02,-1.02 1.49,-1.56 1.42,-1.63 -0.07,-0.08 -0.11,-0.11 -0.11,-0.11 0,-0.73 0.76,-2.59 2.29,-5.57 1.53,-2.98 2.88,-5.64 4.04,-7.97 2.19,-2.33 3.42,-4.22 3.71,-5.68 0.29,-1.45 0.08,-2.62 -0.65,-3.49 -0.29,-0.58 0.22,-1.6 1.53,-3.06 1.31,-1.45 3.27,-3.13 5.89,-5.02 2.62,-1.89 5.61,-3.78 8.95,-5.68 3.5,-2.76 6.88,-4.25 10.16,-4.47 3.27,-0.22 5.2,0.47 5.78,2.07 0,0.44 0.84,0.55 2.51,0.33 1.68,-0.22 3.64,-0.58 5.9,-1.09 2.25,-0.51 4.26,-0.91 6,-1.2 0.73,-0.88 2.44,-1.57 5.13,-2.08 2.7,-0.51 5.86,-0.98 9.5,-1.42 1.89,0.15 3.75,0.19 5.57,0.11 1.82,-0.07 3.35,-0.18 4.58,-0.32 1.24,-0.15 1.86,-0.22 1.86,-0.22 1.02,-0.29 2.22,-0.15 3.6,0.43 1.39,0.59 2.66,2.19 3.82,4.81 1.02,2.62 0.7,4.58 -0.98,5.89 -1.67,1.31 -5.49,2.33 -11.46,3.06 -4.37,0.58 -8.15,1.05 -11.35,1.42 -3.21,0.36 -6.56,0.8 -10.05,1.31 -3.49,0.51 -7.79,1.35 -12.88,2.51 -3.64,0.73 -6.62,1.56 -8.95,2.51 -2.33,0.95 -4.37,2.33 -6.12,4.15 -1.74,1.82 -3.71,4.4 -5.89,7.75 -1.02,0.73 -2.33,2.62 -3.93,5.68 -1.6,3.05 -3.2,6.11 -4.8,9.17 -4.08,5.67 -7.61,10.59 -10.59,14.74 -2.99,4.14 -4.19,6.58 -3.61,7.31 0,0 0.8,0.22 2.4,0.65 1.61,0.44 2.7,0.66 3.28,0.66 1.46,-0.73 3.24,-1.24 5.35,-1.53 2.11,-0.29 3.82,-0.58 5.13,-0.87 9.02,-2.33 16.12,-4.15 21.29,-5.46 5.17,-1.31 9.1,-2.29 11.79,-2.95 2.69,-0.65 4.77,-1.05 6.22,-1.2 2.04,-1.6 4.04,-1.89 6.01,-0.87 1.96,1.02 3.53,2.62 4.69,4.8 0.73,1.6 0.76,2.98 0.11,4.15 -0.66,1.16 -2.48,2.33 -5.46,3.49 -2.98,1.17 -7.39,2.55 -13.21,4.15 -5.82,1.6 -13.46,3.71 -22.92,6.33 -8.01,2.33 -14.85,3.71 -20.53,4.15 -5.68,0.44 -8.37,-0.8 -8.08,-3.71 -1.02,-0.58 -2.14,0.11 -3.38,2.07 -1.24,1.97 -2.44,4.63 -3.6,7.97 -1.17,3.35 -2.15,6.92 -2.95,10.7 -0.8,3.79 -1.31,7.32 -1.53,10.59 -0.22,3.28 -0.04,5.71 0.55,7.32 1.16,3.34 2.69,6 4.58,7.97 1.89,1.96 5.31,3.67 10.26,5.13 2.91,0.14 5.75,0.36 8.52,0.65 2.76,0.29 5.89,-0.29 9.39,-1.75 8.59,-1.45 15.35,-2.98 20.3,-4.58 4.95,-1.6 7.79,-2.69 8.52,-3.28 1.16,-0.58 1.93,-0.91 2.29,-0.98 0.36,-0.07 0.91,-0.11 1.64,-0.11 -0.44,0.73 -0.26,0.77 0.54,0.11 0.8,-0.65 1.93,-1.71 3.39,-3.16 1.6,-1.46 3.71,-2.84 6.33,-4.15 2.62,-1.31 4.99,-2.33 7.1,-3.06 2.11,-0.73 3.23,-0.73 3.38,0 0.87,1.46 0.73,3.46 -0.44,6.01 -1.16,2.54 -3.27,5.31 -6.33,8.29 -3.06,2.99 -6.99,5.86 -11.79,8.63 -7.71,4.07 -16.08,6.95 -25.11,8.62 -9.02,1.67 -17.1,2.58 -24.23,2.73z"/>
   <path id="2" class="fil2" d="M214.71 461.77c-1.46,-1.6 -2.4,-2.95 -2.84,-4.04 -0.44,-1.09 -0.47,-2.4 -0.11,-3.93 0.37,-1.53 0.91,-3.68 1.64,-6.44 1.16,-4.66 2.44,-8.56 3.82,-11.68 1.38,-3.13 2.77,-6.41 4.15,-9.83 1.38,-3.42 2.58,-7.82 3.6,-13.21 2.33,-5.39 4.4,-10.48 6.22,-15.28 1.82,-4.81 3.24,-8.74 4.26,-11.79 1.02,-3.06 1.53,-4.59 1.53,-4.59 0.15,-0.58 0.8,-2.11 1.96,-4.58 1.17,-2.48 2.66,-5.5 4.48,-9.06 1.82,-3.57 3.53,-7.17 5.13,-10.81 2.48,-6.99 4.48,-12.99 6.01,-18.02 1.52,-5.02 3.09,-9.57 4.69,-13.64 1.6,-4.08 3.71,-8.08 6.33,-12.01 1.75,-3.06 3.79,-5.02 6.12,-5.9 2.32,-0.87 4.54,-0.83 6.66,0.11 2.11,0.95 3.6,2.88 4.47,5.79 0.73,1.45 1.35,3.2 1.86,5.24 0.51,2.04 0.98,4.98 1.42,8.84 0.43,3.86 0.72,9.28 0.87,16.27 0.29,8.3 0.36,16.48 0.22,24.56 -0.15,8.08 -0.11,15.54 0.11,22.38 0.22,6.84 0.98,12.67 2.29,17.47 0.44,2.62 1.05,5.78 1.86,9.5 0.8,3.71 1.67,7.38 2.62,11.02 0.94,3.64 1.89,6.7 2.83,9.17 0.95,2.48 1.71,3.71 2.3,3.71 0.72,0 1.71,-0.94 2.94,-2.83 1.24,-1.9 2.84,-5.32 4.81,-10.27 1.96,-4.94 4.33,-11.97 7.09,-21.07 2.77,-9.09 5.9,-20.77 9.39,-35.04 0.73,-2.47 1.71,-6.48 2.95,-12.01 1.24,-5.53 2.15,-11.13 2.73,-16.81 1.02,-3.64 2.04,-7.64 3.06,-12.01 1.01,-4.37 1.92,-8.22 2.73,-11.57 0.8,-3.35 1.2,-5.24 1.2,-5.68 0,-1.02 0.03,-1.89 0.11,-2.62 0.07,-0.73 0.03,-1.45 -0.11,-2.18 0.72,0 1.38,-0.98 1.96,-2.95 0.58,-1.96 0.87,-3.67 0.87,-5.13 0,-2.47 0.33,-4.48 0.99,-6 0.65,-1.53 1.34,-2.66 2.07,-3.39 0.44,-1.16 1.53,-1.71 3.28,-1.64 1.74,0.08 3.49,0.55 5.24,1.42 1.74,0.88 2.83,2.04 3.27,3.5 0.29,1.6 -0.11,5.2 -1.2,10.8 -1.09,5.61 -2.73,13.14 -4.91,22.6 0,1.6 -0.44,4.22 -1.31,7.86 -0.88,3.64 -1.79,7.5 -2.73,11.58 -0.95,4.07 -1.64,7.56 -2.08,10.48 -0.58,3.78 -1.23,7.31 -1.96,10.59 -0.73,3.27 -1.46,4.83 -2.18,4.69 -3.79,16.45 -7.76,30.46 -11.9,42.03 -4.15,11.57 -7.83,21 -11.03,28.27 -3.49,8.01 -7.31,12.85 -11.46,14.52 -4.15,1.68 -8.55,-0.47 -13.21,-6.44 -2.77,-3.78 -4.95,-7.53 -6.55,-11.24 -1.6,-3.71 -2.91,-8.08 -3.93,-13.1 -1.02,-5.02 -2.26,-11.25 -3.71,-18.67 -2.19,-5.97 -3.39,-12.01 -3.61,-18.12 -0.22,-6.12 -0.03,-12.41 0.55,-18.89 0.58,-6.48 1.02,-13.21 1.31,-20.19 -0.15,-6.99 -0.44,-11.65 -0.87,-13.98 -0.44,-2.33 -1.28,-2.22 -2.52,0.33 -1.23,2.55 -3.23,7.68 -6,15.39 -1.02,2.77 -2.36,6.12 -4.04,10.05 -1.67,3.93 -3.31,7.82 -4.91,11.68 -1.6,3.85 -2.99,7.2 -4.15,10.04 -1.16,2.84 -1.89,4.62 -2.18,5.35 -0.88,1.75 -1.9,4.04 -3.06,6.88 -1.16,2.84 -2.11,5.86 -2.84,9.06 -5.24,13.68 -9.13,24.6 -11.68,32.75 -2.55,8.15 -4.4,13.83 -5.57,17.03 -1.45,4.08 -2.98,6.81 -4.58,8.19 -1.6,1.38 -3.86,0.54 -6.77,-2.51z"/>
   <path id="3" class="fil2" d="M371.26 457.84c-1.16,0 -2.47,-0.95 -3.93,-2.84 -1.45,-1.89 -2.11,-3.71 -1.96,-5.46 0.14,-2.33 0.8,-5.68 1.96,-10.04 1.17,-4.37 2.48,-8.81 3.93,-13.32 1.46,-4.51 2.77,-8.08 3.93,-10.7 0.59,-2.33 1.13,-4.4 1.64,-6.22 0.51,-1.82 0.84,-3.02 0.98,-3.61 0.44,-0.58 1.13,-2.11 2.08,-4.58 0.94,-2.48 1.71,-4.88 2.29,-7.21 0.29,-1.16 0.91,-3.38 1.86,-6.66 0.94,-3.27 2.11,-7.09 3.49,-11.46 1.38,-4.37 2.77,-8.66 4.15,-12.88 1.38,-4.22 2.58,-7.93 3.6,-11.14 1.02,-3.2 1.67,-5.31 1.97,-6.33 1.16,-1.74 2.03,-3.42 2.62,-5.02 0.58,-1.6 0.94,-2.69 1.09,-3.28 0.87,-0.58 1.38,-1.34 1.53,-2.29 0.14,-0.94 0.21,-1.71 0.21,-2.29 0,-0.73 0.26,-1.31 0.77,-1.75 0.51,-0.43 0.76,-0.94 0.76,-1.53 0.58,-0.43 0.95,-1.12 1.09,-2.07 0.15,-0.95 0.59,-1.78 1.31,-2.51l1.1 -3.71 12.88 -0.22c-0.29,1.75 -0.73,3.89 -1.31,6.44 -0.58,2.55 -1.97,5.93 -4.15,10.15 -0.73,2.91 -1.57,5.53 -2.51,7.86 -0.95,2.33 -1.35,3.86 -1.2,4.59 -0.29,0.29 -0.91,1.75 -1.86,4.37 -0.94,2.62 -2.04,5.82 -3.27,9.6 -1.24,3.79 -2.48,7.57 -3.72,11.36 -1.23,3.78 -2.32,7.09 -3.27,9.93 -0.95,2.84 -1.56,4.62 -1.86,5.35 -1.16,2.33 -2.47,5.75 -3.93,10.26 -1.45,4.51 -3.64,10.63 -6.55,18.34 -1.16,2.33 -2.58,5.82 -4.25,10.48 -1.68,4.66 -3.02,8.88 -4.04,12.67 -1.6,5.67 -2.73,9.64 -3.39,11.9 -0.65,2.25 -1.2,3.49 -1.64,3.71 -0.43,0.22 -1.23,0.25 -2.4,0.11zm1.75 -130.13c-4.08,0.14 -7.1,-0.08 -9.06,-0.66 -1.97,-0.58 -2.66,-2.04 -2.08,-4.37 0.44,-1.74 1.39,-3.05 2.84,-3.93 1.46,-0.87 3.57,-1.52 6.33,-1.96 1.61,-0.29 3.68,-0.66 6.23,-1.09 2.54,-0.44 4.98,-0.88 7.31,-1.31 4.81,-0.58 8.77,-1.09 11.9,-1.53 3.13,-0.44 6.37,-0.8 9.72,-1.09 3.35,-0.29 7.57,-0.58 12.66,-0.88 4.22,-0.29 7.83,-0.54 10.81,-0.76 2.98,-0.22 4.48,-0.33 4.48,-0.33 0.43,0 1.96,0.15 4.58,0.44 2.62,0.29 5.46,0.65 8.52,1.09 3.05,0.44 5.31,0.95 6.76,1.53 3.35,0.73 5.79,1.75 7.32,3.06 1.53,1.31 2.58,3.2 3.16,5.67 0.44,1.75 0.44,2.8 0,3.17 -0.43,0.36 -1.23,0.84 -2.4,1.42 -3.35,1.02 -5.82,1.53 -7.42,1.53 -1.6,0 -3.42,-0.37 -5.46,-1.1 -0.73,-0.72 -1.56,-1.38 -2.51,-1.96 -0.95,-0.58 -2.55,-1.06 -4.8,-1.42 -2.26,-0.36 -5.79,-0.69 -10.59,-0.98 -4.08,0.43 -7.65,0.65 -10.7,0.65 -3.06,0 -4.59,0.37 -4.59,1.09l-12.88 0.66 -10.7 1.09c-1.45,0.15 -3.49,0.33 -6.11,0.55 -2.62,0.22 -5.17,0.43 -7.64,0.65 -2.48,0.22 -4.37,0.48 -5.68,0.77z"/>
   <path id="4" class="fil2" d="M472.58 453.47c-4.52,-0.29 -8.48,-1.67 -11.9,-4.15 -3.42,-2.47 -7.03,-5.02 -10.81,-7.64 -2.48,-2.47 -4.44,-5.13 -5.9,-7.97 -1.45,-2.84 -2.62,-6.59 -3.49,-11.24 -0.58,-2.77 -0.58,-6.26 0,-10.48 0.58,-4.23 1.53,-8.48 2.84,-12.78 1.31,-4.29 2.55,-7.75 3.71,-10.37 1.75,-4.07 3.97,-8.48 6.66,-13.21 2.69,-4.73 5.39,-9.24 8.08,-13.54 2.69,-4.29 4.84,-7.75 6.44,-10.37 1.02,-1.02 1.49,-1.56 1.42,-1.63 -0.07,-0.08 -0.11,-0.11 -0.11,-0.11 0,-0.73 0.76,-2.59 2.29,-5.57 1.53,-2.98 2.88,-5.64 4.04,-7.97 2.19,-2.33 3.42,-4.22 3.71,-5.68 0.29,-1.45 0.08,-2.62 -0.65,-3.49 -0.29,-0.58 0.22,-1.6 1.53,-3.06 1.31,-1.45 3.27,-3.13 5.89,-5.02 2.62,-1.89 5.61,-3.78 8.95,-5.68 3.5,-2.76 6.88,-4.25 10.16,-4.47 3.27,-0.22 5.2,0.47 5.78,2.07 0,0.44 0.84,0.55 2.51,0.33 1.68,-0.22 3.64,-0.58 5.9,-1.09 2.24,-0.51 4.25,-0.91 5.99,-1.2 0.73,-0.88 2.44,-1.57 5.13,-2.08 2.7,-0.51 5.86,-0.98 9.5,-1.42 1.89,0.15 3.75,0.19 5.57,0.11 1.82,-0.07 3.35,-0.18 4.58,-0.32 1.24,-0.15 1.86,-0.22 1.86,-0.22 1.02,-0.29 2.22,-0.15 3.6,0.43 1.39,0.59 2.66,2.19 3.82,4.81 1.02,2.62 0.7,4.58 -0.98,5.89 -1.67,1.31 -5.49,2.33 -11.46,3.06 -4.37,0.58 -8.15,1.05 -11.35,1.42 -3.21,0.36 -6.56,0.8 -10.05,1.31 -3.49,0.51 -7.78,1.35 -12.87,2.51 -3.64,0.73 -6.62,1.56 -8.95,2.51 -2.33,0.95 -4.37,2.33 -6.12,4.15 -1.74,1.82 -3.71,4.4 -5.89,7.75 -1.02,0.73 -2.33,2.62 -3.93,5.68 -1.6,3.05 -3.2,6.11 -4.8,9.17 -4.08,5.67 -7.61,10.59 -10.59,14.74 -2.99,4.14 -4.19,6.58 -3.61,7.31 0,0 0.8,0.22 2.4,0.65 1.61,0.44 2.7,0.66 3.28,0.66 1.46,-0.73 3.24,-1.24 5.35,-1.53 2.11,-0.29 3.82,-0.58 5.13,-0.87 9.02,-2.33 16.12,-4.15 21.29,-5.46 5.17,-1.31 9.1,-2.29 11.79,-2.95 2.69,-0.65 4.76,-1.05 6.21,-1.2 2.04,-1.6 4.04,-1.89 6.01,-0.87 1.96,1.02 3.53,2.62 4.69,4.8 0.73,1.6 0.76,2.98 0.11,4.15 -0.66,1.16 -2.48,2.33 -5.46,3.49 -2.98,1.17 -7.39,2.55 -13.2,4.15 -5.82,1.6 -13.46,3.71 -22.92,6.33 -8.01,2.33 -14.85,3.71 -20.53,4.15 -5.68,0.44 -8.37,-0.8 -8.08,-3.71 -1.02,-0.58 -2.14,0.11 -3.38,2.07 -1.24,1.97 -2.44,4.63 -3.6,7.97 -1.17,3.35 -2.15,6.92 -2.95,10.7 -0.8,3.79 -1.31,7.32 -1.53,10.59 -0.22,3.28 -0.04,5.71 0.55,7.32 1.16,3.34 2.69,6 4.58,7.97 1.89,1.96 5.31,3.67 10.26,5.13 2.91,0.14 5.75,0.36 8.52,0.65 2.76,0.29 5.89,-0.29 9.39,-1.75 8.59,-1.45 15.35,-2.98 20.3,-4.58 4.95,-1.6 7.79,-2.69 8.52,-3.28 1.16,-0.58 1.93,-0.91 2.29,-0.98 0.36,-0.07 0.91,-0.11 1.64,-0.11 -0.44,0.73 -0.26,0.77 0.54,0.11 0.8,-0.65 1.92,-1.71 3.38,-3.16 1.6,-1.46 3.71,-2.84 6.33,-4.15 2.62,-1.31 4.99,-2.33 7.1,-3.06 2.11,-0.73 3.23,-0.73 3.38,0 0.87,1.46 0.73,3.46 -0.44,6.01 -1.16,2.54 -3.27,5.31 -6.33,8.29 -3.06,2.99 -6.99,5.86 -11.79,8.63 -7.7,4.07 -16.07,6.95 -25.1,8.62 -9.02,1.67 -17.1,2.58 -24.23,2.73z"/>
   <path id="5" class="fil2" d="M568.2 461.33c-0.58,1.46 -1.64,2.26 -3.17,2.4 -1.53,0.15 -3.53,-0.73 -6,-2.62 -1.75,-1.74 -2.88,-3.09 -3.39,-4.04 -0.51,-0.94 -0.25,-2.54 0.77,-4.8 1.02,-2.26 2.76,-6.22 5.24,-11.9 0.58,-3.49 1.6,-7.02 3.05,-10.59 1.46,-3.57 2.55,-6.08 3.28,-7.53 0.58,-2.04 1.78,-5.42 3.6,-10.16 1.82,-4.73 3.93,-10 6.33,-15.82 2.41,-5.83 4.7,-11.32 6.88,-16.49 2.18,-5.17 3.79,-9.06 4.8,-11.68 2.48,-5.82 5.03,-11.94 7.65,-18.34 2.62,-6.41 6.18,-14.48 10.7,-24.24 0.58,-1.45 0.91,-2.98 0.98,-4.58 0.07,-1.6 -1.13,-2.4 -3.6,-2.4 -1.46,-1.61 -2.26,-3.24 -2.41,-4.92 -0.14,-1.67 0.59,-2.87 2.19,-3.6l11.35 -4.58c6.84,-1.61 13.87,-2.08 21.07,-1.42 7.21,0.65 14.01,2.65 20.42,6 6.98,4.08 11.93,8.19 14.84,12.34 2.91,4.15 4.41,8.33 4.48,12.55 0.07,4.22 -0.69,8.37 -2.29,12.45 -1.17,3.05 -3.39,6.4 -6.66,10.04 -3.28,3.64 -7.06,7.28 -11.36,10.92 -4.29,3.64 -8.73,6.95 -13.32,9.93 -4.58,2.99 -8.84,5.28 -12.77,6.88 -3.64,1.75 -7.42,3.27 -11.35,4.58 -3.93,1.31 -8.01,2.62 -12.23,3.94 -2.33,0.58 -5.09,0.87 -8.3,0.87 -3.2,0 -5.6,-0.29 -7.2,-0.87l-3.71 10.26c-1.46,5.24 -3.97,13.02 -7.54,23.36 -3.56,10.33 -7.67,21.69 -12.33,34.06zm86.68 2.4c-1.17,0.44 -2.51,0.58 -4.04,0.44 -1.53,-0.15 -3.97,-1.31 -7.32,-3.49 -6.4,-3.79 -12.8,-8.37 -19.21,-13.76 -6.4,-5.39 -13.61,-12.66 -21.61,-21.83 -3.06,-3.64 -5.65,-6.99 -7.76,-10.05 -2.11,-3.05 -4.33,-7.35 -6.66,-12.88l-3.05 -11.79 5.89 -3.28 7.86 7.87c2.33,5.09 5.35,9.97 9.06,14.62 3.72,4.66 7.17,8.81 10.38,12.45 2.62,3.06 6.18,6.73 10.69,11.03 4.52,4.29 9.32,8.4 14.41,12.33 5.1,3.93 9.68,6.92 13.76,8.95 0.87,0.73 1.16,1.82 0.87,3.28 -0.29,1.45 -0.76,2.8 -1.42,4.04 -0.65,1.24 -1.27,1.93 -1.85,2.07zm-56.33 -81.22c3.34,-0.29 7.27,-1.13 11.79,-2.51 4.51,-1.38 9.02,-3.02 13.53,-4.91 4.23,-2.04 8.7,-4.48 13.43,-7.32 4.73,-2.84 9.14,-6 13.21,-9.5 4.08,-3.49 7.39,-7.13 9.94,-10.91 2.54,-3.79 3.67,-7.57 3.38,-11.36 0,-1.89 -0.73,-3.85 -2.18,-5.89 -1.46,-2.04 -3.21,-3.86 -5.24,-5.46 -2.04,-1.6 -4.01,-2.69 -5.9,-3.28 -5.82,-1.45 -10.62,-2.4 -14.41,-2.83 -3.78,-0.44 -6.69,-0.19 -8.73,0.76 -2.04,0.95 -3.42,2.88 -4.15,5.79 0,0.43 -0.58,1.89 -1.75,4.36 -1.16,2.48 -2.58,5.53 -4.26,9.17 -1.67,3.64 -3.31,7.5 -4.91,11.58 -4.22,8.58 -7.42,15.1 -9.6,19.54 -2.19,4.44 -3.57,7.53 -4.15,9.28 -0.59,1.74 -0.59,2.91 0,3.49z"/>
  </g>
 </g>
</svg>
