<svg width="53" height="32" viewBox="0 0 53 32" fill="none" xmlns="http://www.w3.org/2000/svg">
<path fill-rule="evenodd" clip-rule="evenodd" d="M26.6103 27.2412C29.499 29.8207 33.2837 31.2499 37.2103 31.2441C41.4094 31.2119 45.4252 29.5714 48.3828 26.6801C51.3404 23.7888 52.9999 19.8809 52.9999 15.8081C52.9999 11.7352 51.3404 7.82734 48.3828 4.93603C45.4252 2.04471 41.4094 0.40426 37.2103 0.372092C33.284 0.365615 29.4993 1.79412 26.6103 4.373C24.9669 5.82094 23.6537 7.58617 22.7551 9.55536C21.8565 11.5245 21.3923 13.6542 21.3923 15.8076C21.3923 17.961 21.8565 20.0907 22.7551 22.0599C23.6537 24.0291 24.9669 25.7942 26.6103 27.2422V27.2412Z" fill="#E99F2B"/>
<path fill-rule="evenodd" clip-rule="evenodd" d="M50.9258 24.4054C50.9256 24.3429 50.938 24.2809 50.9626 24.2231C50.9872 24.1653 51.0233 24.1127 51.0689 24.0685C51.1145 24.0243 51.1686 23.9893 51.2283 23.9654C51.2879 23.9416 51.3518 23.9295 51.4163 23.9297C51.4828 23.9267 51.5494 23.9368 51.6119 23.9593C51.6743 23.9818 51.7315 24.0163 51.78 24.0607C51.8284 24.1051 51.8672 24.1585 51.8939 24.2177C51.9206 24.2769 51.9348 24.3408 51.9355 24.4054C51.9379 24.4722 51.926 24.5387 51.9008 24.6008C51.8755 24.663 51.8373 24.7194 51.7886 24.7666C51.74 24.8138 51.6818 24.8509 51.6177 24.8754C51.5536 24.8999 51.4851 24.9113 51.4163 24.9091C51.3496 24.9084 51.2838 24.8946 51.2227 24.8687C51.1616 24.8428 51.1066 24.8052 51.0608 24.7582C51.0151 24.7112 50.9795 24.6558 50.9563 24.5951C50.9331 24.5345 50.9228 24.47 50.9258 24.4054ZM51.4163 24.8041C51.5242 24.8014 51.6269 24.7584 51.7031 24.6842C51.7793 24.61 51.823 24.5101 51.8253 24.4054C51.8214 24.3038 51.7762 24.2077 51.6996 24.1382C51.623 24.0688 51.5211 24.0316 51.4163 24.0347C51.3156 24.0369 51.2197 24.0766 51.1485 24.1457C51.0773 24.2148 51.0363 24.3078 51.034 24.4054C51.0354 24.506 51.0753 24.6026 51.1459 24.6763C51.2165 24.7499 51.3129 24.7955 51.4163 24.8041ZM51.3617 24.6452H51.2534V24.1935H51.4431C51.4818 24.1893 51.5209 24.1985 51.5533 24.2196C51.6069 24.2456 51.6069 24.2735 51.6069 24.3264C51.6069 24.3794 51.5801 24.4333 51.5255 24.4333L51.6357 24.6452H51.4987L51.4431 24.4593H51.3617V24.3784H51.4689C51.4957 24.3784 51.4957 24.3524 51.4957 24.3264C51.4957 24.3004 51.4957 24.3005 51.4689 24.2745H51.3587L51.3617 24.6452Z" fill="#E99F2B"/>
<path fill-rule="evenodd" clip-rule="evenodd" d="M31.7192 14.1764C31.6636 13.6198 31.5554 13.0902 31.4452 12.5337H21.7745C21.8905 11.9876 22.0363 11.4479 22.2113 10.9169H30.9826C30.7913 10.3584 30.5726 9.81084 30.3264 9.27418H22.8954C23.1674 8.71248 23.4679 8.16491 23.7968 7.63145H29.3971C29.0382 7.06466 28.6367 6.52427 28.1959 6.0147H24.9971C25.4917 5.42843 26.0306 4.87868 26.6094 4.37004C24.3266 2.3618 21.4917 1.03956 18.4491 0.563896C15.4064 0.0882288 12.2868 0.479608 9.46905 1.69046C6.65129 2.90131 4.25656 4.87954 2.57567 7.38502C0.894779 9.8905 0 12.8154 0 15.8046C0 18.7939 0.894779 21.7188 2.57567 24.2243C4.25656 26.7297 6.65129 28.708 9.46905 29.9188C12.2868 31.1297 15.4064 31.521 18.4491 31.0454C21.4917 30.5697 24.3266 29.2475 26.6094 27.2393C27.1802 26.74 27.7112 26.1995 28.1978 25.6225H24.9971C24.5662 25.0965 24.1652 24.5481 23.7958 23.9798H29.3961C29.7486 23.456 30.0593 22.9068 30.3254 22.3371H22.8944C22.6374 21.8094 22.4091 21.2692 22.2103 20.7184H30.9816C31.1649 20.1789 31.3196 19.6306 31.4452 19.0757C31.6862 18.0054 31.8054 16.9127 31.8006 15.8172C31.8006 15.2606 31.7738 14.704 31.7192 14.1744V14.1764Z" fill="#BF0C24"/>
<path fill-rule="evenodd" clip-rule="evenodd" d="M50.9257 19.396C50.9229 19.3316 50.9335 19.2673 50.9568 19.2069C50.9801 19.1465 51.0157 19.0913 51.0615 19.0445C51.1072 18.9977 51.1622 18.9604 51.2231 18.9346C51.284 18.9088 51.3497 18.8951 51.4162 18.8944C51.4848 18.8919 51.5533 18.9033 51.6173 18.9276C51.6813 18.952 51.7394 18.9888 51.7881 19.0358C51.8368 19.0829 51.875 19.1391 51.9004 19.2011C51.9257 19.2631 51.9376 19.3294 51.9354 19.396C51.9355 19.4622 51.9222 19.5278 51.8961 19.5889C51.8701 19.6501 51.8319 19.7056 51.7836 19.7524C51.7354 19.7992 51.6781 19.8363 51.615 19.8616C51.552 19.8868 51.4844 19.8998 51.4162 19.8996C51.2829 19.8941 51.1571 19.8385 51.0656 19.7444C50.974 19.6504 50.9238 19.5254 50.9257 19.396ZM51.4162 19.7668C51.4687 19.7704 51.5214 19.7636 51.5711 19.7466C51.6207 19.7296 51.6662 19.7029 51.7048 19.6681C51.7433 19.6334 51.7741 19.5912 51.7951 19.5444C51.8161 19.4976 51.827 19.4471 51.827 19.396C51.827 19.345 51.8161 19.2944 51.7951 19.2476C51.7741 19.2008 51.7433 19.1587 51.7048 19.1239C51.6662 19.0891 51.6207 19.0624 51.5711 19.0455C51.5214 19.0285 51.4687 19.0216 51.4162 19.0253C51.3148 19.0253 51.2176 19.0644 51.1459 19.1339C51.0742 19.2034 51.034 19.2977 51.034 19.396C51.034 19.4943 51.0742 19.5886 51.1459 19.6581C51.2176 19.7277 51.3148 19.7668 51.4162 19.7668ZM51.3616 19.6079H51.2533V19.1842H51.5512C51.6048 19.2102 51.6048 19.2651 51.6048 19.3171C51.6009 19.3399 51.5915 19.3614 51.5773 19.38C51.5632 19.3986 51.5447 19.4136 51.5234 19.4239L51.6336 19.6098H51.4966L51.441 19.4509H51.3596V19.3701H51.4142C51.441 19.3701 51.4698 19.37 51.4698 19.344C51.4966 19.344 51.4966 19.318 51.4966 19.2911C51.4966 19.2842 51.4938 19.2775 51.4887 19.2727C51.4837 19.2678 51.4769 19.2651 51.4698 19.2651C51.4698 19.2372 51.441 19.2651 51.4142 19.2651H51.3596L51.3616 19.6079Z" fill="white"/>
<path fill-rule="evenodd" clip-rule="evenodd" d="M21.2274 20.2683C20.8105 20.3928 20.3786 20.4641 19.9427 20.4802C19.1217 20.4802 18.6313 19.9785 18.6313 19.0753C18.6372 18.8819 18.6551 18.6889 18.6849 18.4975L18.7951 17.889L18.8765 17.3854L19.6141 13.0397H21.2532L21.0616 13.993H22.1011L21.8538 15.5828H20.8154L20.3786 18.1827C20.3598 18.2694 20.3508 18.3579 20.3518 18.4465C20.3518 18.7912 20.5156 18.928 20.9256 18.928C21.1 18.9253 21.2738 18.9072 21.4448 18.874L21.2274 20.2683ZM26.5279 20.2164C25.9588 20.3731 25.3702 20.4532 24.7786 20.4542C24.3833 20.501 23.9821 20.4599 23.6056 20.334C23.229 20.2082 22.8869 20.0009 22.6052 19.7279C22.3235 19.4548 22.1095 19.1231 21.9795 18.758C21.8495 18.3929 21.8069 18.0038 21.8548 17.6203C21.8548 15.42 23.1117 13.8293 24.86 13.8293C25.1731 13.8125 25.4862 13.8612 25.7781 13.9722C26.07 14.0832 26.3339 14.2538 26.5518 14.4725C26.7696 14.6912 26.9364 14.9529 27.0407 15.2397C27.145 15.5265 27.1845 15.8317 27.1563 16.1345C27.1501 16.6609 27.0858 17.1852 26.9647 17.6983H23.5485C23.5292 17.7674 23.5202 17.8387 23.5217 17.9102C23.5217 18.6516 24.041 19.0224 25.0238 19.0224C25.6391 19.0211 26.2461 18.8854 26.7999 18.6256L26.5279 20.2164ZM25.5163 16.4273V16.1086C25.5304 15.9997 25.5192 15.8892 25.4834 15.7851C25.4477 15.681 25.3883 15.586 25.3098 15.5072C25.2312 15.4283 25.1354 15.3674 25.0294 15.3292C24.9233 15.291 24.8098 15.2763 24.6972 15.2862C24.1512 15.2862 23.7679 15.6829 23.6051 16.4273H25.5163ZM8.11367 20.3492H6.41798L7.40283 14.3329L5.1899 20.3492H4.01545L3.87845 14.3599L2.84 20.3492H1.1731L2.51137 12.5313H4.9983L5.05193 17.3545L6.7188 12.5313H9.45097L8.11367 20.3492ZM12.2387 17.5134C12.1304 17.4937 12.0203 17.485 11.9101 17.4874C10.9272 17.4874 10.4348 17.8582 10.4348 18.4407C10.4258 18.5255 10.4354 18.6111 10.4631 18.6919C10.4908 18.7728 10.5359 18.847 10.5955 18.9097C10.655 18.9723 10.7276 19.022 10.8084 19.0553C10.8892 19.0887 10.9764 19.105 11.0642 19.1032C11.8833 19.1061 12.2109 18.4388 12.2387 17.5154V17.5134ZM13.6058 20.3492H12.1305L12.1573 19.6858C11.9507 19.9542 11.676 20.1662 11.3599 20.3012C11.0438 20.4362 10.6971 20.4896 10.3534 20.4561C10.1337 20.4407 9.91939 20.3831 9.72298 20.2864C9.52657 20.1897 9.35203 20.0559 9.20956 19.893C9.06709 19.7301 8.95957 19.5412 8.89328 19.3375C8.827 19.1338 8.80326 18.9192 8.82351 18.7065C8.82676 18.4281 8.87227 18.1516 8.95855 17.8861C9.23255 16.9048 10.2422 16.2963 11.8009 16.2694C11.9925 16.2694 12.2913 16.2693 12.5653 16.2953C12.6056 16.1576 12.624 16.0148 12.6199 15.8717C12.6199 15.446 12.2645 15.3131 11.4733 15.3131C10.9907 15.3108 10.5108 15.383 10.0516 15.527L9.80639 15.5799L9.69617 15.6059L9.94339 14.175C10.5853 13.9585 11.2585 13.8422 11.9379 13.8303C13.4112 13.8303 14.2054 14.4937 14.2054 15.7128C14.2224 16.1295 14.1945 16.5468 14.122 16.9578L13.7398 19.2351L13.6862 19.6338L13.6594 19.9525L13.6326 20.1644L13.6058 20.3492ZM34.778 14.0411C35.3165 14.0591 35.8422 14.2053 36.3088 14.4668L36.6067 12.7701C36.4642 12.7093 36.3184 12.6563 36.1699 12.6112L35.4858 12.4254C34.5968 12.2649 33.6792 12.3479 32.8361 12.6651C32.462 12.903 32.1219 13.1876 31.8244 13.5116L31.606 13.4586L29.8587 14.6517L29.9401 13.9882H28.1362L27.0719 20.3434H28.7924L29.4199 16.927C29.4199 16.927 29.6671 16.4456 29.7753 16.2905C29.8813 16.1451 30.0267 16.0311 30.1955 15.961C30.3643 15.891 30.5498 15.8677 30.7314 15.8938H30.8684C30.8114 16.2971 30.7841 16.7038 30.787 17.1109C30.787 19.1783 31.9882 20.4811 33.8457 20.4811C34.3548 20.4781 34.8609 20.4068 35.3498 20.2693L35.6476 18.4677C35.2089 18.7241 34.7109 18.8698 34.1992 18.8914C33.1895 18.8914 32.5889 18.1499 32.5889 16.9848C32.5919 15.2612 33.4933 14.0431 34.778 14.0431V14.0411ZM49.2866 12.5313L48.9043 14.7566C48.7523 14.4842 48.5272 14.2568 48.2528 14.0983C47.9784 13.9399 47.665 13.8562 47.3456 13.8563C46.8653 13.8703 46.3986 14.0141 45.998 14.2715C45.5974 14.5289 45.2788 14.8897 45.0781 15.3131V15.2872L43.9861 14.6526L44.0963 13.9891H42.2656L41.2271 20.3502H42.9208L43.4946 16.9318C43.4946 16.9318 43.9335 16.4504 44.0407 16.2953C44.1324 16.181 44.2478 16.0866 44.3795 16.0183C44.5112 15.95 44.6562 15.9092 44.8051 15.8986C44.5994 16.5052 44.4987 17.1407 44.5073 17.7792C44.5073 19.369 45.3531 20.4292 46.61 20.4292C46.9135 20.4357 47.2146 20.3745 47.49 20.2505C47.7653 20.1264 48.0077 19.9428 48.1985 19.7137L48.1151 20.3502H49.7274L51.0388 12.5322L49.2866 12.5313ZM47.1819 18.8375C46.608 18.8375 46.3092 18.4137 46.3092 17.5924C46.3092 16.3464 46.8552 15.446 47.6475 15.446C48.2431 15.446 48.5489 15.8977 48.5489 16.6911C48.5479 17.9651 48.0019 18.8403 47.1809 18.8403L47.1819 18.8375ZM39.2872 17.5134C39.1789 17.4937 39.0688 17.485 38.9586 17.4874C37.9737 17.4874 37.4833 17.8582 37.4833 18.4407C37.4741 18.5254 37.4836 18.6109 37.5112 18.6916C37.5387 18.7724 37.5836 18.8466 37.6429 18.9093C37.7023 18.9719 37.7747 19.0216 37.8553 19.055C37.936 19.0885 38.023 19.1049 38.1107 19.1032C38.9318 19.1061 39.2594 18.4388 39.2872 17.5154V17.5134ZM40.6523 20.3492H39.1502L39.2078 19.6906C39.0015 19.9589 38.7271 20.1708 38.4114 20.3058C38.0956 20.4408 37.7492 20.4942 37.4059 20.4609C37.1814 20.452 36.9612 20.399 36.7584 20.3052C36.5557 20.2115 36.3746 20.0788 36.2262 19.9153C36.0778 19.7518 35.965 19.5608 35.8948 19.3539C35.8245 19.147 35.7982 18.9283 35.8174 18.7113C35.8174 17.2014 36.9919 16.2742 38.8494 16.2742C39.0956 16.2707 39.3417 16.2793 39.587 16.3002C39.6346 16.1633 39.6627 16.0207 39.6704 15.8765C39.6704 15.4509 39.315 15.3199 38.4959 15.3199C38.0136 15.319 37.5341 15.3905 37.0743 15.5318L36.8559 15.5847L36.7457 15.6107L36.9909 14.1798C37.6328 13.9637 38.306 13.8473 38.9854 13.8351C40.4607 13.8351 41.2251 14.4986 41.2251 15.7176C41.2574 16.1343 41.23 16.5533 41.1437 16.9626L40.7883 19.2419L40.7347 19.6386L40.6791 19.9573L40.6523 20.1692V20.355V20.3492ZM17.1838 15.3421C17.6139 15.3443 18.0431 15.3794 18.4675 15.447L18.7127 13.9632C18.2222 13.9112 17.566 13.8303 17.1828 13.8303C15.2707 13.8303 14.6413 14.8384 14.6413 16.0026C14.6348 16.389 14.756 16.7674 14.9871 17.0822C15.2183 17.397 15.5473 17.6318 15.9259 17.7522C16.61 18.071 16.7201 18.123 16.7201 18.4157C16.7201 18.8124 16.3667 19.0503 15.7105 19.0503C15.1791 19.0508 14.6516 18.9615 14.1518 18.7864L13.9602 20.2433L13.987 20.2693L14.3156 20.3223C14.4604 20.3565 14.6068 20.3835 14.7544 20.4031C15.1634 20.4291 15.5189 20.4552 15.7373 20.4552C17.6494 20.4552 18.4427 19.7397 18.4427 18.3367C18.4547 17.9462 18.336 17.5623 18.1045 17.2426C17.8729 16.9229 17.5409 16.6845 17.158 16.563C16.4203 16.2443 16.3369 16.1923 16.3369 15.8996C16.3369 15.6068 16.6646 15.343 17.1838 15.343V15.3421Z" fill="#082C5C"/>
<path fill-rule="evenodd" clip-rule="evenodd" d="M37.0783 12.2673L36.7804 13.9639C36.3141 13.7029 35.7886 13.5574 35.2505 13.5403C33.9659 13.5403 33.0664 14.7574 33.0664 16.481C33.0664 17.674 33.6621 18.3895 34.6787 18.3895C35.1856 18.3649 35.6801 18.2293 36.1252 17.9928L35.8273 19.7664C35.34 19.9112 34.8348 19.9918 34.3253 20.0061C32.4678 20.0061 31.3181 18.7063 31.3181 16.6139C31.3181 13.8301 32.9066 11.8696 35.1701 11.8696C35.4373 11.8651 35.704 11.8922 35.9643 11.9505L36.6484 12.1094C36.8688 12.1883 36.9224 12.2143 37.0872 12.2663L37.0783 12.2673ZM31.5593 13.4344H31.3956C30.8217 13.4344 30.4941 13.7001 29.9739 14.4685L30.1377 13.4873H28.579L27.5148 19.8483H29.2353C29.8647 15.9524 30.0295 15.2899 30.8475 15.2899H30.9577C31.0834 14.6525 31.3038 14.0363 31.612 13.4603L31.5593 13.4344ZM21.6682 19.7664C21.2752 19.9077 20.8594 19.9801 20.4402 19.9802C20.2491 19.9973 20.0565 19.972 19.8769 19.9063C19.6974 19.8405 19.5356 19.736 19.4039 19.6006C19.2722 19.4652 19.1739 19.3026 19.1166 19.125C19.0593 18.9473 19.0444 18.7593 19.0731 18.5753C19.0791 18.3888 19.0974 18.2029 19.1277 18.0187L19.2379 17.3822L19.3213 16.8806L20.0569 12.533H21.7526L21.561 13.4863H22.4337L22.2153 15.0501H21.3406L20.877 17.7C20.856 17.7871 20.847 17.8764 20.8502 17.9658C20.8502 18.2826 21.014 18.4154 21.424 18.4154C21.5807 18.429 21.7385 18.411 21.8877 18.3625L21.6692 19.7654L21.6682 19.7664ZM15.0851 15.5017C15.08 15.8907 15.2011 16.2714 15.4312 16.5901C15.6614 16.9087 15.989 17.1491 16.3678 17.2773C17.0786 17.5941 17.1888 17.7009 17.1888 17.9648C17.1888 18.3634 16.891 18.5493 16.204 18.5493C15.6844 18.5453 15.1685 18.4645 14.6741 18.3095L14.4289 19.7664L14.5103 19.7943L14.8081 19.8473C14.9596 19.8842 15.1155 19.9017 15.2717 19.8993C15.5796 19.9399 15.8903 19.9579 16.201 19.9532C18.0049 19.9532 18.8527 19.2898 18.8527 17.8348C18.8787 17.4522 18.7752 17.0718 18.558 16.7513C18.3409 16.4309 18.0219 16.1879 17.6494 16.0592C16.9118 15.7405 16.8304 15.6625 16.8304 15.3698C16.8304 15.0251 17.1282 14.8662 17.6782 14.8662C18.0889 14.8695 18.499 14.8965 18.9063 14.9471L19.1535 13.4902C18.6565 13.4083 18.1536 13.3639 17.6494 13.3573C15.7334 13.3563 15.0523 14.3356 15.0811 15.5027L15.0851 15.5017ZM50.1651 19.8473H48.5528L48.6343 19.2368C48.4388 19.4576 48.1956 19.6338 47.9219 19.753C47.6482 19.8722 47.3507 19.9313 47.0508 19.9263C45.7939 19.9263 44.9729 18.894 44.9729 17.3043C44.9729 15.1859 46.2565 13.3823 47.7596 13.3823C48.0866 13.384 48.408 13.4648 48.6946 13.6175C48.9812 13.7702 49.2239 13.9899 49.4007 14.2567L49.7829 12.0294H51.4736L50.1622 19.8473H50.1651ZM47.6504 18.3634C48.4446 18.3634 48.9887 17.4621 48.9887 16.2171C48.9887 15.3948 48.6908 14.9653 48.0872 14.9653C47.3228 14.9653 46.749 15.8397 46.749 17.0837C46.7463 17.9369 47.0458 18.3638 47.6474 18.3644L47.6504 18.3634ZM26.9141 19.7115C26.3406 19.8919 25.7409 19.9816 25.138 19.9773C23.2239 19.9773 22.2411 18.9961 22.2411 17.1155C22.2411 14.9413 23.4979 13.3246 25.2194 13.3246C25.5342 13.3058 25.8494 13.353 26.1437 13.4629C26.4379 13.5729 26.7043 13.7429 26.9248 13.9616C27.1452 14.1804 27.3144 14.4426 27.4211 14.7304C27.5277 15.0183 27.5691 15.325 27.5425 15.6297C27.5379 16.1664 27.4645 16.7004 27.3241 17.2195H23.9348C23.9144 17.2794 23.9054 17.3423 23.908 17.4053C23.908 18.1487 24.4272 18.5195 25.41 18.5195C26.0269 18.5303 26.6369 18.3934 27.1861 18.1208L26.9141 19.7115ZM25.9561 15.9225V15.6066C25.9703 15.4979 25.959 15.3874 25.9233 15.2834C25.8876 15.1794 25.8282 15.0845 25.7496 15.0058C25.671 14.927 25.5751 14.8664 25.4691 14.8284C25.363 14.7904 25.2496 14.776 25.137 14.7863C24.591 14.7863 24.2078 15.183 24.045 15.9254L25.9561 15.9225ZM8.55057 19.8435H6.85688L7.83973 13.8272L5.62684 19.8435H4.45236L4.31536 13.8821L3.27788 19.8435H1.68945L3.02772 12.0256H5.48784L5.56925 16.8748L7.20833 12.0256H9.88886L8.55057 19.8435ZM12.7858 17.0077C12.622 17.0077 12.5406 16.9817 12.4036 16.9817C11.4475 16.9817 10.9551 17.3264 10.9551 17.961C10.9432 18.0422 10.9499 18.125 10.9748 18.2034C10.9996 18.2819 11.0419 18.3541 11.0988 18.4148C11.1557 18.4756 11.2257 18.5235 11.3038 18.5551C11.3819 18.5866 11.4662 18.6011 11.5508 18.5974C12.2666 18.6023 12.755 17.9648 12.7858 17.0115V17.0077ZM14.0456 19.8435H12.624L12.6508 19.18C12.4365 19.44 12.1605 19.6458 11.8463 19.78C11.5322 19.9141 11.1893 19.9725 10.8469 19.9503C10.6242 19.9475 10.4046 19.8993 10.2024 19.8088C10.0001 19.7184 9.81976 19.5877 9.67297 19.4253C9.52617 19.2629 9.41624 19.0723 9.3503 18.866C9.28436 18.6597 9.26386 18.4422 9.29019 18.2277C9.29019 16.6639 10.3823 15.7626 12.2954 15.7626C12.487 15.7626 12.7342 15.7886 13.0062 15.8156C13.0443 15.6867 13.0624 15.553 13.0598 15.4189C13.0598 14.9952 12.762 14.8412 11.9678 14.8412C11.4895 14.8351 11.0124 14.8884 10.5481 15L10.3008 15.079L10.1371 15.1069L10.3843 13.676C11.0465 13.4691 11.7376 13.3616 12.4334 13.3573C13.9086 13.3573 14.7009 13.9919 14.7009 15.2119C14.6906 15.6388 14.6448 16.0641 14.5639 16.4839L14.1816 18.737L14.127 19.1338L14.1002 19.4525L14.0734 19.6904L14.0466 19.8492L14.0456 19.8435ZM39.8372 17.0077C39.6456 17.0077 39.5632 16.9817 39.455 16.9817C38.4701 16.9817 37.9777 17.3264 37.9777 17.961C37.9688 18.0444 37.9786 18.1288 38.0067 18.2082C38.0348 18.2876 38.0804 18.3601 38.1403 18.4207C38.2002 18.4813 38.273 18.5285 38.3536 18.559C38.4342 18.5895 38.5208 18.6027 38.6072 18.5974C39.2912 18.5974 39.8084 17.961 39.8372 17.0077ZM41.0941 19.8435H39.6724L39.6992 19.18C39.4848 19.4399 39.2088 19.6456 38.8947 19.7797C38.5806 19.9139 38.2377 19.9724 37.8953 19.9503C37.6726 19.9475 37.453 19.8993 37.2508 19.8088C37.0486 19.7184 36.8682 19.5877 36.7214 19.4253C36.5746 19.2629 36.4647 19.0723 36.3987 18.866C36.3328 18.6597 36.3123 18.4422 36.3386 18.2277C36.3386 16.6639 37.4307 15.7626 39.3438 15.7626C39.5354 15.7626 39.7806 15.7886 40.0278 15.8156C40.0712 15.687 40.0986 15.5538 40.1092 15.4189C40.1092 14.9952 39.8114 14.8412 39.0172 14.8412C38.53 14.8352 38.0441 14.8885 37.5707 15L37.3503 15.079L37.1865 15.1069L37.4337 13.676C38.096 13.4691 38.787 13.3616 39.4828 13.3573C40.9581 13.3573 41.7225 13.9919 41.7225 15.2119C41.7265 15.6395 41.6805 16.0662 41.5855 16.4839L41.2301 18.737L41.1765 19.1338L41.1219 19.4525L41.0951 19.6904V19.8492L41.0941 19.8435ZM45.6827 13.4305H45.5169C44.9451 13.4305 44.6175 13.6963 44.0972 14.4647L44.261 13.4834H42.7024L41.6639 19.8444H43.3596C43.987 15.9485 44.1538 15.286 44.9719 15.286H45.0801C45.2055 14.6483 45.4266 14.032 45.7363 13.4565L45.6827 13.4305Z" fill="white"/>
</svg>
