<svg width="17" height="18" viewBox="0 0 17 18" fill="none" xmlns="http://www.w3.org/2000/svg">
<path d="M10.3331 10.8415C10.3331 10.8117 10.3549 10.7874 10.3549 10.7598V8.86109C10.3458 8.80819 10.3326 8.75581 10.3153 8.70425C11.1697 8.27456 11.8736 7.67435 12.3597 6.96111C12.8459 6.24787 13.098 5.44546 13.0919 4.63068C13.0919 2.14104 11.035 0.123047 8.49976 0.123047C5.96448 0.123047 3.90763 2.13993 3.90763 4.63068C3.92948 5.44842 4.20422 6.24866 4.7067 6.95804C5.20918 7.66742 5.92332 8.26325 6.78368 8.69097C6.76333 8.74665 6.74829 8.80354 6.73869 8.86109V10.7576C6.74227 10.7728 6.74682 10.788 6.75232 10.8029C2.86762 11.1917 -0.000244141 12.9015 -0.000244141 14.5926C-0.000244141 16.5156 3.80404 17.123 8.49976 17.123C13.1955 17.123 16.9998 16.5156 16.9998 14.5926C16.9984 12.9446 14.1169 11.2822 10.3331 10.8415Z" fill="#030303"/>
</svg>
