<svg width="14" height="23" viewBox="0 0 14 23" fill="none" xmlns="http://www.w3.org/2000/svg">
<path d="M12.3738 0.700195H1.62824C1.19674 0.70122 0.783231 0.861873 0.478113 1.14704C0.172995 1.4322 0.00109658 1.81867 0 2.22195V21.3711C0.00109658 21.7744 0.172995 22.1608 0.478113 22.446C0.783231 22.7312 1.19674 22.8918 1.62824 22.8929H12.3738C12.8051 22.8918 13.2184 22.7311 13.5232 22.4459C13.828 22.1606 13.9995 21.7742 14 21.3711V2.22195C13.9995 1.81885 13.828 1.43237 13.5232 1.14715C13.2184 0.861936 12.8051 0.701222 12.3738 0.700195ZM3.94496 21.1411H2.19003C2.0347 21.1411 1.88573 21.0834 1.7759 20.9807C1.66606 20.8781 1.60436 20.7389 1.60436 20.5937C1.60436 20.4485 1.66606 20.3093 1.7759 20.2067C1.88573 20.104 2.0347 20.0463 2.19003 20.0463H3.94496C4.10029 20.0463 4.24926 20.104 4.35909 20.2067C4.46893 20.3093 4.53063 20.4485 4.53063 20.5937C4.53063 20.7389 4.46893 20.8781 4.35909 20.9807C4.24926 21.0834 4.10029 21.1411 3.94496 21.1411ZM3.94496 19.0554H2.19003C2.03497 19.0554 1.88627 18.9979 1.77663 18.8954C1.66699 18.793 1.6054 18.654 1.6054 18.5091C1.6054 18.3641 1.66699 18.2252 1.77663 18.1227C1.88627 18.0202 2.03497 17.9626 2.19003 17.9626H3.94496C4.10002 17.9626 4.24872 18.0202 4.35836 18.1227C4.468 18.2252 4.5296 18.3641 4.5296 18.5091C4.5296 18.654 4.468 18.793 4.35836 18.8954C4.24872 18.9979 4.10002 19.0554 3.94496 19.0554ZM3.94496 16.9718H2.19003C2.0347 16.9718 1.88573 16.9141 1.7759 16.8114C1.66606 16.7088 1.60436 16.5696 1.60436 16.4244C1.60436 16.2792 1.66606 16.14 1.7759 16.0374C1.88573 15.9347 2.0347 15.877 2.19003 15.877H3.94496C4.10029 15.877 4.24926 15.9347 4.35909 16.0374C4.46893 16.14 4.53063 16.2792 4.53063 16.4244C4.53063 16.5696 4.46893 16.7088 4.35909 16.8114C4.24926 16.9141 4.10029 16.9718 3.94496 16.9718ZM3.94496 14.8861H2.19003C2.0347 14.8861 1.88573 14.8285 1.7759 14.7258C1.66606 14.6232 1.60436 14.484 1.60436 14.3388C1.60436 14.1936 1.66606 14.0544 1.7759 13.9517C1.88573 13.8491 2.0347 13.7914 2.19003 13.7914H3.94496C4.10029 13.7914 4.24926 13.8491 4.35909 13.9517C4.46893 14.0544 4.53063 14.1936 4.53063 14.3388C4.53063 14.484 4.46893 14.6232 4.35909 14.7258C4.24926 14.8285 4.10029 14.8861 3.94496 14.8861ZM7.87747 21.142H6.12461C5.96928 21.142 5.82031 21.0844 5.71048 20.9817C5.60065 20.8791 5.53894 20.7398 5.53894 20.5947C5.53894 20.4495 5.60065 20.3103 5.71048 20.2076C5.82031 20.105 5.96928 20.0473 6.12461 20.0473H7.87747C8.03279 20.0473 8.18176 20.105 8.2916 20.2076C8.40143 20.3103 8.46313 20.4495 8.46313 20.5947C8.46313 20.7398 8.40143 20.8791 8.2916 20.9817C8.18176 21.0844 8.03279 21.142 7.87747 21.142ZM7.87747 19.0564H6.12461C6.04784 19.0564 5.97181 19.0423 5.90088 19.0148C5.82995 18.9874 5.7655 18.9471 5.71121 18.8964C5.65692 18.8456 5.61386 18.7854 5.58448 18.7191C5.5551 18.6528 5.53998 18.5818 5.53998 18.51C5.53998 18.4383 5.5551 18.3672 5.58448 18.3009C5.61386 18.2346 5.65692 18.1744 5.71121 18.1236C5.7655 18.0729 5.82995 18.0327 5.90088 18.0052C5.97181 17.9777 6.04784 17.9636 6.12461 17.9636H7.87747C7.95424 17.9636 8.03026 17.9777 8.10119 18.0052C8.17212 18.0327 8.23658 18.0729 8.29086 18.1236C8.34515 18.1744 8.38822 18.2346 8.4176 18.3009C8.44698 18.3672 8.4621 18.4383 8.4621 18.51C8.4621 18.5818 8.44698 18.6528 8.4176 18.7191C8.38822 18.7854 8.34515 18.8456 8.29086 18.8964C8.23658 18.9471 8.17212 18.9874 8.10119 19.0148C8.03026 19.0423 7.95424 19.0564 7.87747 19.0564ZM7.87747 16.9727H6.12461C5.96928 16.9727 5.82031 16.9151 5.71048 16.8124C5.60065 16.7098 5.53894 16.5705 5.53894 16.4254C5.53894 16.2802 5.60065 16.141 5.71048 16.0383C5.82031 15.9357 5.96928 15.878 6.12461 15.878H7.87747C8.03279 15.878 8.18176 15.9357 8.2916 16.0383C8.40143 16.141 8.46313 16.2802 8.46313 16.4254C8.46313 16.5705 8.40143 16.7098 8.2916 16.8124C8.18176 16.9151 8.03279 16.9727 7.87747 16.9727ZM7.87747 14.8871H6.12461C6.0477 14.8871 5.97154 14.873 5.90048 14.8455C5.82943 14.8179 5.76486 14.7776 5.71048 14.7268C5.6561 14.6759 5.61295 14.6156 5.58352 14.5492C5.55409 14.4828 5.53894 14.4116 5.53894 14.3397C5.53894 14.2678 5.55409 14.1967 5.58352 14.1303C5.61295 14.0639 5.6561 14.0035 5.71048 13.9527C5.76486 13.9019 5.82943 13.8615 5.90048 13.834C5.97154 13.8065 6.0477 13.7924 6.12461 13.7924H7.87747C7.95438 13.7924 8.03053 13.8065 8.10159 13.834C8.17265 13.8615 8.23721 13.9019 8.2916 13.9527C8.34598 14.0035 8.38912 14.0639 8.41856 14.1303C8.44799 14.1967 8.46313 14.2678 8.46313 14.3397C8.46313 14.4116 8.44799 14.4828 8.41856 14.5492C8.38912 14.6156 8.34598 14.6759 8.2916 14.7268C8.23721 14.7776 8.17265 14.8179 8.10159 14.8455C8.03053 14.873 7.95438 14.8871 7.87747 14.8871ZM11.81 21.143H10.055C9.89971 21.143 9.75074 21.0853 9.64091 20.9827C9.53107 20.88 9.46937 20.7408 9.46937 20.5957C9.46937 20.4505 9.53107 20.3113 9.64091 20.2086C9.75074 20.106 9.89971 20.0483 10.055 20.0483H11.81C11.9653 20.0483 12.1143 20.106 12.2241 20.2086C12.3339 20.3113 12.3956 20.4505 12.3956 20.5957C12.3956 20.7408 12.3339 20.88 12.2241 20.9827C12.1143 21.0853 11.9653 21.143 11.81 21.143ZM11.81 19.0574H10.055C9.89998 19.0574 9.75128 18.9998 9.64164 18.8973C9.532 18.7949 9.47041 18.6559 9.47041 18.511C9.47041 18.3661 9.532 18.2271 9.64164 18.1246C9.75128 18.0222 9.89998 17.9646 10.055 17.9646H11.81C11.965 17.9646 12.1137 18.0222 12.2234 18.1246C12.333 18.2271 12.3946 18.3661 12.3946 18.511C12.3946 18.6559 12.333 18.7949 12.2234 18.8973C12.1137 18.9998 11.965 19.0574 11.81 19.0574ZM11.81 16.9737H10.055C9.97813 16.9737 9.90197 16.9595 9.83091 16.932C9.75985 16.9045 9.69529 16.8642 9.64091 16.8134C9.58652 16.7626 9.54338 16.7022 9.51395 16.6358C9.48452 16.5694 9.46937 16.4982 9.46937 16.4263C9.46937 16.3544 9.48452 16.2833 9.51395 16.2169C9.54338 16.1505 9.58652 16.0901 9.64091 16.0393C9.69529 15.9885 9.75985 15.9481 9.83091 15.9206C9.90197 15.8931 9.97813 15.879 10.055 15.879H11.81C11.8869 15.879 11.963 15.8931 12.0341 15.9206C12.1052 15.9481 12.1697 15.9885 12.2241 16.0393C12.2785 16.0901 12.3216 16.1505 12.3511 16.2169C12.3805 16.2833 12.3956 16.3544 12.3956 16.4263C12.3956 16.4982 12.3805 16.5694 12.3511 16.6358C12.3216 16.7022 12.2785 16.7626 12.2241 16.8134C12.1697 16.8642 12.1052 16.9045 12.0341 16.932C11.963 16.9595 11.8869 16.9737 11.81 16.9737ZM11.81 14.8881H10.055C9.89971 14.8881 9.75074 14.8304 9.64091 14.7277C9.53107 14.6251 9.46937 14.4859 9.46937 14.3407C9.46937 14.1955 9.53107 14.0563 9.64091 13.9537C9.75074 13.851 9.89971 13.7933 10.055 13.7933H11.81C11.9653 13.7933 12.1143 13.851 12.2241 13.9537C12.3339 14.0563 12.3956 14.1955 12.3956 14.3407C12.3956 14.4859 12.3339 14.6251 12.2241 14.7277C12.1143 14.8304 11.9653 14.8881 11.81 14.8881ZM12.433 12.5317H1.56905V2.48691H12.4299L12.433 12.5317Z" fill="#030303"/>
</svg>
