<svg width="55" height="16" viewBox="0 0 55 16" fill="none" xmlns="http://www.w3.org/2000/svg">
<path d="M10.4473 8.40747L8.93656 1.79655C8.82708 1.41326 8.56961 1.07891 8.21147 0.854959C7.85334 0.631005 7.41862 0.532513 6.98723 0.577574H0.0610828L0 0.879622C5.39466 2.07254 8.96316 4.95098 10.4473 8.40747Z" fill="#F68A0A"/>
<path d="M26.4981 0.710938H22.0229L19.228 15.6741H23.6963L26.4981 0.710938Z" fill="#004A89"/>
<path d="M13.1753 15.6596L20.2137 0.72168H15.4774L11.0988 10.9266L10.6307 9.38579C9.21031 6.85133 7.07239 4.70969 4.43872 3.18302L8.44087 15.6623L13.1753 15.6596Z" fill="#004A89"/>
<path d="M39.2633 10.7817C39.2791 9.08174 38.0807 7.78634 35.5066 6.71658C33.9406 6.02618 32.9856 5.56411 32.9974 4.86293C32.9974 4.24354 33.8066 3.57742 35.5598 3.57742C36.7063 3.55409 37.8456 3.74944 38.9046 4.15096L39.3087 4.32086L39.9167 1.07923C38.6307 0.657483 37.2732 0.446279 35.9067 0.455359C31.4896 0.455359 28.3794 2.4816 28.3498 5.39152C28.3232 7.54272 30.5731 8.74014 32.2702 9.4566C34.0106 10.1875 34.593 10.6558 34.5821 11.3103C34.5703 12.3144 33.1965 12.7702 31.9104 12.7702C30.4583 12.8094 29.0161 12.5404 27.6974 11.9845L27.1258 11.7453L26.4971 15.0994C28.091 15.6356 29.778 15.9045 31.4768 15.8931C36.1728 15.8922 39.2278 13.8903 39.2633 10.7817Z" fill="#004A89"/>
<path d="M44.5799 13.4313L50.3057 13.4367C50.4417 13.9581 50.8497 15.6787 50.8497 15.6787H54.9996L51.3789 0.727277H47.9296C47.4443 0.669916 46.9517 0.760116 46.5283 0.983894C46.1048 1.20767 45.774 1.55256 45.5871 1.96515L38.9468 15.6787H43.6456C43.6456 15.6787 44.4055 13.8358 44.5799 13.4313ZM47.6448 6.18485C47.6222 6.2253 48.0144 5.31913 48.2361 4.75639L48.5387 6.04639C48.5387 6.04639 49.3921 9.62063 49.5715 10.3668H45.867C46.2355 9.50736 47.6409 6.18572 47.6409 6.18572L47.6448 6.18485Z" fill="#004A89"/>
</svg>
