<svg width="21" height="20" viewBox="0 0 21 20" fill="none" xmlns="http://www.w3.org/2000/svg">
<path d="M12.0199 0C13.8199 0 14.1999 0.0199999 15.1199 0.0599999C16.1799 0.11 16.9099 0.28 17.5399 0.53C18.1999 0.78 18.7599 1.13 19.3099 1.68C19.8699 2.23 20.2099 2.79 20.4699 3.45C20.7199 4.08 20.8799 4.81 20.9299 5.88C20.9799 6.83 20.9899 7.2 20.9899 9.2V10.8C20.9899 12.8 20.9799 13.17 20.9299 14.12C20.9142 14.9468 20.7587 15.7651 20.4699 16.54C20.2099 17.2 19.8699 17.76 19.3199 18.31C18.7599 18.87 18.1999 19.21 17.5399 19.47C16.9099 19.72 16.1799 19.88 15.1199 19.93C14.1699 19.98 13.7899 19.99 11.7899 19.99H10.1999C8.19991 19.99 7.82991 19.98 6.86991 19.93C6.04309 19.9141 5.2249 19.7586 4.44991 19.47C3.78352 19.2195 3.17956 18.8271 2.67991 18.32C2.16771 17.8186 1.77174 17.211 1.51991 16.54C1.23153 15.765 1.07601 14.9468 1.05991 14.12C1.01089 13.0874 0.990878 12.0537 0.999909 11.02V8.97C0.999909 7.17 1.01991 6.79 1.05991 5.87C1.10991 4.81 1.27991 4.08 1.51991 3.45C1.77991 2.79 2.11991 2.23 2.67991 1.68C3.17509 1.16743 3.78035 0.774176 4.44991 0.53C5.22436 0.238206 6.04253 0.079305 6.86991 0.0599999C7.78991 0.0199999 8.16991 0 9.96991 0H12.0199ZM12.0399 1.8H9.94991C8.21991 1.8 7.84991 1.82 6.94991 1.86C5.97991 1.9 5.44991 2.06 5.09991 2.2C4.62991 2.38 4.29991 2.6 3.94991 2.95C3.59991 3.3 3.37991 3.63 3.19991 4.1C3.06991 4.45 2.89991 4.98 2.85991 5.96C2.81991 6.86 2.79991 7.22 2.79991 8.96V11.04C2.79991 12.78 2.81991 13.14 2.85991 14.04C2.89991 15.01 3.05991 15.54 3.19991 15.89C3.37991 16.36 3.59991 16.69 3.94991 17.04C4.29991 17.39 4.62991 17.61 5.09991 17.79C5.44991 17.93 5.97991 18.09 6.95991 18.13C7.92991 18.18 8.27991 18.19 10.4399 18.19H11.5499C13.7199 18.19 14.0599 18.18 15.0399 18.13C16.0099 18.09 16.5399 17.93 16.8899 17.79C17.3599 17.61 17.6899 17.39 18.0399 17.04C18.3899 16.69 18.6099 16.36 18.7899 15.89C18.9299 15.54 19.0899 15.01 19.1299 14.04C19.1799 13.06 19.1899 12.72 19.1899 10.55V9.45C19.1899 7.28 19.1799 6.93 19.1299 5.95C19.0899 4.98 18.9299 4.45 18.7899 4.1C18.629 3.66543 18.3727 3.27246 18.0399 2.95C17.7177 2.61692 17.3246 2.3606 16.8899 2.2C16.2968 1.98317 15.6713 1.86822 15.0399 1.86C14.0407 1.81227 13.0403 1.79226 12.0399 1.8ZM10.9999 4.86C12.3618 4.86 13.6679 5.40101 14.6309 6.36401C15.5939 7.32701 16.1349 8.63311 16.1349 9.995C16.1349 11.3569 15.5939 12.663 14.6309 13.626C13.6679 14.589 12.3618 15.13 10.9999 15.13C9.63802 15.13 8.33192 14.589 7.36892 13.626C6.40592 12.663 5.86491 11.3569 5.86491 9.995C5.86491 8.63311 6.40592 7.32701 7.36892 6.36401C8.33192 5.40101 9.63802 4.86 10.9999 4.86ZM10.9999 6.66C10.1154 6.66 9.26714 7.01136 8.64171 7.6368C8.01627 8.26223 7.66491 9.1105 7.66491 9.995C7.66491 10.8795 8.01627 11.7278 8.64171 12.3532C9.26714 12.9786 10.1154 13.33 10.9999 13.33C11.8844 13.33 12.7327 12.9786 13.3581 12.3532C13.9835 11.7278 14.3349 10.8795 14.3349 9.995C14.3349 9.1105 13.9835 8.26223 13.3581 7.6368C12.7327 7.01136 11.8844 6.66 10.9999 6.66ZM16.3299 3.46C16.6482 3.46 16.9534 3.58643 17.1784 3.81147C17.4035 4.03652 17.5299 4.34174 17.5299 4.66C17.5299 4.97826 17.4035 5.28348 17.1784 5.50853C16.9534 5.73357 16.6482 5.86 16.3299 5.86C16.0116 5.86 15.7064 5.73357 15.4814 5.50853C15.2563 5.28348 15.1299 4.97826 15.1299 4.66C15.1299 4.34174 15.2563 4.03652 15.4814 3.81147C15.7064 3.58643 16.0116 3.46 16.3299 3.46Z" fill="white"/>
</svg>
