<svg width="35" height="20" viewBox="0 0 35 20" fill="none" xmlns="http://www.w3.org/2000/svg">
<path d="M28.0463 9.53131L28.4514 9.82429L28.0462 9.53133L28.0375 9.54337L28.0296 9.55591L28.0241 9.56443C27.8418 9.85095 27.6271 10.1885 27.5958 10.5741C27.5609 11.0029 27.7497 11.3805 28.0535 11.7657C28.2785 12.0713 28.7177 12.4936 29.1629 12.9216L29.2186 12.9752C29.709 13.4469 30.2379 13.9573 30.657 14.4436L30.6569 14.4437L30.6648 14.4524C31.4666 15.3396 32.1608 16.1473 32.6946 16.8565C33.2324 17.5712 33.5782 18.1487 33.7227 18.5836C33.8476 19.0095 33.7639 19.1952 33.6918 19.2772C33.601 19.3806 33.3754 19.5 32.9 19.5H29.15C28.8647 19.5 28.6495 19.4459 28.4459 19.3413C28.2318 19.2312 28.0081 19.054 27.7212 18.7714C27.4878 18.5415 27.2327 18.2628 26.9183 17.9193C26.8435 17.8375 26.7653 17.752 26.6832 17.6627C26.2614 17.2034 25.752 16.658 25.1076 16.0248L25.1076 16.0247L25.1009 16.0183C22.8653 13.9018 21.7873 13.5 21.0214 13.5C20.6368 13.5 20.1701 13.5421 19.8606 13.9197C19.7147 14.0977 19.6387 14.3101 19.5965 14.5249C19.5544 14.7389 19.54 14.9865 19.54 15.2629V18.5671C19.54 18.9745 19.4729 19.1053 19.3197 19.2062C19.0848 19.361 18.554 19.5 17.3614 19.5C13.5808 19.5 9.35638 17.238 6.32928 12.9693L6.32931 12.9693L6.32596 12.9647C4.02329 9.79474 2.56183 7.01776 1.67767 4.92124C1.23547 3.8727 0.938595 2.99654 0.753082 2.32859C0.563491 1.64595 0.5 1.21519 0.5 1.04286C0.5 0.822262 0.545221 0.720535 0.599084 0.665287C0.652991 0.609994 0.815168 0.5 1.28571 0.5H5.03857C5.44378 0.5 5.635 0.585099 5.76595 0.703821C5.92119 0.844556 6.06698 1.09853 6.24067 1.5973L6.24089 1.59793C7.17133 4.25819 8.42056 6.75276 9.60415 8.58974C10.195 9.50682 10.7784 10.2739 11.3072 10.8182C11.5712 11.0899 11.8327 11.3178 12.0852 11.4811C12.3288 11.6386 12.6137 11.7686 12.9129 11.7686C13.0633 11.7686 13.2463 11.7528 13.4254 11.6734C13.6187 11.5877 13.7692 11.4454 13.8752 11.2576C14.0609 10.9282 14.1086 10.4535 14.1086 9.86286V4.43714V4.42328L14.1078 4.40944C14.0325 3.05263 13.6199 2.28387 13.2119 1.73875C13.1207 1.617 13.031 1.5079 12.9541 1.41438L12.9397 1.39691C12.8564 1.29558 12.7927 1.21718 12.7408 1.14337C12.6422 1.00339 12.6186 0.924956 12.6186 0.847143C12.6186 0.72178 12.7418 0.5 13.0729 0.5H18.97C19.282 0.5 19.3612 0.578452 19.3955 0.624471C19.4587 0.709263 19.5271 0.906541 19.5271 1.35429V8.65286C19.5271 9.54679 19.9704 10.2071 20.6243 10.2071C21.3375 10.2071 21.8763 9.76411 22.7235 8.93074L22.7333 8.92112L22.7425 8.91098C24.1334 7.38401 25.3082 5.46003 26.1304 3.93353C26.5431 3.16734 26.8702 2.49507 27.0945 2.01374C27.2066 1.77298 27.2932 1.57971 27.3519 1.44604C27.3813 1.3792 27.4038 1.32723 27.419 1.29166L27.4364 1.25077L27.441 1.23989L27.4411 1.23963C27.5381 1.01805 27.6612 0.841122 27.8275 0.71774C27.9888 0.59802 28.229 0.5 28.6143 0.5H32.3643C32.8718 0.5 33.0083 0.630552 33.0396 0.674605C33.0637 0.708464 33.0935 0.784647 33.0799 0.932508L33.0104 1.24613C32.9089 1.70417 32.5684 2.4447 32.0719 3.34132C31.5845 4.22141 30.9756 5.20202 30.3774 6.12191C29.78 7.04074 29.1968 7.89362 28.7628 8.51712C28.5459 8.82874 28.3664 9.08274 28.2413 9.25864C28.1788 9.34659 28.1298 9.41499 28.0966 9.4613L28.0588 9.51386L28.0493 9.5271L28.0469 9.53036L28.0464 9.53113L28.0463 9.53131Z" fill="black" stroke="black"/>
</svg>
