<svg width="35" height="20" viewBox="0 0 35 20" fill="none" xmlns="http://www.w3.org/2000/svg">
<path fill-rule="evenodd" clip-rule="evenodd" d="M33.5 1.35429C33.7371 0.574286 33.5 0 32.3643 0H28.6143C27.66 0 27.22 0.495714 26.9814 1.04286C26.9814 1.04286 25.0743 5.60857 22.3729 8.57429C21.4986 9.43429 21.1014 9.70714 20.6243 9.70714C20.3857 9.70714 20.0271 9.43429 20.0271 8.65286V1.35429C20.0271 0.417143 19.7643 0 18.97 0H13.0729C12.4771 0 12.1186 0.434286 12.1186 0.847143C12.1186 1.73429 13.47 1.94 13.6086 4.43714V9.86286C13.6086 11.0529 13.39 11.2686 12.9129 11.2686C11.6414 11.2686 8.54857 6.68143 6.71286 1.43286C6.35714 0.411428 5.99714 0 5.03857 0H1.28571C0.214286 0 0 0.495714 0 1.04286C0 2.01714 1.27143 6.85714 5.92143 13.2586C9.02143 17.63 13.3857 20 17.3614 20C19.7457 20 20.04 19.4743 20.04 18.5671V15.2629C20.04 14.21 20.2657 14 21.0214 14C21.5786 14 22.5314 14.2743 24.7571 16.3814C27.3 18.88 27.7186 20 29.15 20H32.9C33.9714 20 34.5086 19.4743 34.2 18.4343C33.86 17.4 32.6457 15.8986 31.0357 14.1171C30.1614 13.1029 28.85 12.01 28.4514 11.4629C27.8957 10.7614 28.0543 10.4486 28.4514 9.82429C28.4514 9.82429 33.0229 3.50143 33.4986 1.35429H33.5Z" fill="white"/>
</svg>
